<?xml version="1.0" encoding="utf-8"?>
<!-- Generator: Adobe Illustrator 22.1.0, SVG Export Plug-In . SVG Version: 6.00 Build 0)  -->
<svg version="1.1" id="Layer_1" xmlns="http://www.w3.org/2000/svg" xmlns:xlink="http://www.w3.org/1999/xlink" x="0px" y="0px"
	 viewBox="0 0 1232 1134.9" style="enable-background:new 0 0 1232 1134.9;" xml:space="preserve">
<style type="text/css">
	.st0{fill:#FFFFFF;}
	.st1{fill:#FF0026;}
	.st2{fill:#01FFFF;}
</style>
<g>
	<g>
		<path class="st0" d="M-2203.9,971.5c-0.9,0.3-1.8,0.6-2.6,0.8c-0.8,0.2-1.8,0.4-2.8,0.5c-1,0.1-2.2,0.2-3.5,0.2
			c-1.3,0-2.9,0.1-4.7,0.1h-8.4v28.2h-23v-88.4h29.3c2.8,0,5.4,0.1,7.9,0.2c2.5,0.1,5.1,0.6,7.8,1.4c3.2,1,6,2.4,8.4,4.3
			c2.4,1.8,4.4,4,6,6.4c1.6,2.5,2.8,5.2,3.6,8.1c0.8,3,1.2,6,1.2,9.2c0,3.2-0.4,6.3-1.2,9.3c-0.8,3-2,5.8-3.6,8.3
			c-1.6,2.5-3.6,4.8-6,6.8C-2198.1,968.9-2200.8,970.4-2203.9,971.5z M-2213.7,933.4c-0.9-0.3-1.8-0.5-2.6-0.5c-0.8,0-1.6,0-2.6,0
			h-7v19.8h6.6c1.4,0,2.5-0.1,3.1-0.2c0.7-0.1,1.4-0.3,2.1-0.4c0.6-0.2,1.2-0.5,1.9-0.9c0.7-0.4,1.4-1,2-1.7
			c0.6-0.7,1.2-1.6,1.6-2.7c0.5-1.1,0.7-2.4,0.7-4c0-2.2-0.5-4.1-1.4-5.8C-2210.1,935.4-2211.6,934.2-2213.7,933.4z"/>
		<path class="st0" d="M-2142,1001.3l-18-28.3v28.3h-22.4v-88.4h32.8c4.2,0,8.1,0.3,11.6,0.9c3.6,0.6,7.1,2.2,10.6,4.9
			c1.1,0.8,2.3,1.9,3.5,3.3c1.3,1.4,2.4,3.1,3.6,5.1c1.1,2,2.1,4.3,2.8,6.9s1.1,5.7,1.1,9.1c0,3.5-0.4,6.6-1.3,9.3
			c-0.8,2.7-1.9,5-3.1,6.9c-1.2,2-2.5,3.6-3.9,4.9c-1.4,1.3-2.6,2.3-3.7,3.1c-0.9,0.7-1.9,1.3-2.9,1.8c-1,0.5-2.7,1.2-5,2.1
			l21.4,30.2H-2142z M-2140.3,937.4c-1.4-2.3-3.2-3.6-5.3-4.1c-2.1-0.5-4.4-0.7-6.8-0.7h-7.5V957h7.1c0.3-0.1,0.6-0.1,1-0.1
			c0.6,0,1,0,1.4-0.1c0.7-0.1,1.3-0.2,1.9-0.3c0.6-0.1,1.2-0.2,1.9-0.4c0.8-0.3,1.6-0.6,2.5-1.2c0.9-0.5,1.8-1.3,2.6-2.3
			c0.8-1,1.5-2.1,2.1-3.6c0.6-1.4,0.9-3.1,0.9-5c0-1.2-0.1-2.3-0.3-3.4C-2139.2,939.6-2139.7,938.5-2140.3,937.4z"/>
		<path class="st0" d="M-2113.7,1001.3v-88.4h22.5v88.4H-2113.7z"/>
		<path class="st0" d="M-2032.1,1001.3l-33.2-48.3v48.3h-22.2v-88.4h19.7c3.9,5.6,7.8,11,11.5,16.3c3.8,5.3,7.5,10.8,11.3,16.5
			l10.4,15.9v-48.7h22.3v88.4H-2032.1z"/>
		<path class="st0" d="M-1968.9,932.9v68.3h-22.4v-68.5h-17.3v-19.9h57.3v20H-1968.9z"/>
		<path class="st0" d="M-1856.5,1001.3h-21.7l-9.3-34.8l-4-15.3l-13.4,50.1h-20.9l-25-88.4h24.5l8.4,34.7c0.5,2.1,1,4.3,1.5,6.8
			c0.5,2.4,1.3,5.7,2.3,9.9l3.5-15.6l9.5-35.7h19.5l9.4,34l4.5,18.1c0.9-4.5,1.7-8,2.3-10.6c0.6-2.5,1.1-4.9,1.6-7.2l7.8-34.4h22.4
			L-1856.5,1001.3z"/>
		<path class="st0" d="M-1758.8,986.6c-4.3,5.3-9.5,9.3-15.7,12.1c-6.2,2.8-12.7,4.2-19.5,4.2c-6,0-11.9-1.2-17.6-3.6
			c-5.7-2.4-10.7-5.7-15-10c-4.3-4.3-7.6-9.2-10-15c-2.4-5.7-3.6-11.6-3.6-17.6c0-1.3,0.1-3.1,0.3-5.3c0.2-2.2,0.7-4.6,1.4-7.3
			c0.8-2.7,1.9-5.5,3.3-8.5c1.5-3,3.4-5.9,5.9-8.8c2.1-2.5,4.5-4.8,7.2-6.8c2.7-2,5.6-3.7,8.6-5.1c3-1.4,6.2-2.4,9.5-3.2
			c3.3-0.8,6.6-1.1,9.8-1.1c3.8,0,7.2,0.4,10.5,1.3c3.2,0.8,6.1,1.8,8.6,3c2.5,1.2,4.7,2.4,6.6,3.6c1.8,1.3,3.3,2.3,4.3,3.1
			c5.1,4.3,9.1,9.6,11.9,15.8c2.8,6.2,4.3,12.6,4.3,19.4c0,1.3-0.1,3.1-0.3,5.3c-0.2,2.2-0.7,4.6-1.4,7.2c-0.8,2.6-1.9,5.4-3.3,8.4
			C-1754.5,980.8-1756.4,983.7-1758.8,986.6z M-1770.7,948.2c-0.9-2.4-2.1-4.6-3.7-6.6c-1.5-2-3.3-3.6-5.4-5.1
			c-2-1.4-4.3-2.5-6.7-3.3c-2.4-0.8-4.9-1.1-7.5-1.1c-0.8,0-1.8,0.1-3.1,0.3c-1.3,0.2-2.8,0.5-4.3,1c-1.5,0.5-3.2,1.2-4.9,2.1
			c-1.8,0.9-3.4,2.1-5,3.6c-2.4,2.3-4.3,5-5.5,8.1c-1.3,3.1-1.9,6.3-1.9,9.6c0,0.8,0.1,1.8,0.2,3.1c0.1,1.3,0.4,2.8,0.9,4.4
			c0.5,1.6,1.2,3.3,2.2,5c1,1.8,2.3,3.4,3.9,5c2.3,2.3,4.9,4.1,8.1,5.4c3.1,1.3,6.3,1.9,9.5,1.9c2.4,0,4.6-0.3,6.6-0.9
			c2-0.6,3.7-1.3,5.2-2.1c1.5-0.8,2.8-1.7,3.8-2.6c1-0.9,1.9-1.6,2.4-2.2c0.6-0.6,1.3-1.4,2.1-2.4c0.8-1,1.5-2.2,2.2-3.7
			c0.7-1.5,1.3-3.1,1.8-4.9c0.5-1.8,0.8-3.8,0.8-6.1C-1769.2,953.9-1769.7,950.9-1770.7,948.2z"/>
		<path class="st0" d="M-1705,1001.3l-18-28.3v28.3h-22.4v-88.4h32.8c4.2,0,8.1,0.3,11.6,0.9c3.6,0.6,7.1,2.2,10.6,4.9
			c1.1,0.8,2.3,1.9,3.5,3.3c1.3,1.4,2.4,3.1,3.6,5.1c1.1,2,2.1,4.3,2.8,6.9s1.1,5.7,1.1,9.1c0,3.5-0.4,6.6-1.3,9.3
			c-0.8,2.7-1.9,5-3.1,6.9c-1.2,2-2.5,3.6-3.9,4.9c-1.4,1.3-2.6,2.3-3.7,3.1c-0.9,0.7-1.9,1.3-2.9,1.8c-1,0.5-2.7,1.2-5,2.1
			l21.4,30.2H-1705z M-1703.4,937.4c-1.4-2.3-3.2-3.6-5.3-4.1c-2.1-0.5-4.4-0.7-6.8-0.7h-7.5V957h7.1c0.3-0.1,0.6-0.1,1-0.1
			c0.6,0,1,0,1.4-0.1c0.7-0.1,1.3-0.2,1.9-0.3c0.6-0.1,1.2-0.2,1.9-0.4c0.8-0.3,1.6-0.6,2.5-1.2c0.9-0.5,1.8-1.3,2.6-2.3
			c0.8-1,1.5-2.1,2.1-3.6c0.6-1.4,0.9-3.1,0.9-5c0-1.2-0.1-2.3-0.3-3.4C-1702.3,939.6-1702.7,938.5-1703.4,937.4z"/>
		<path class="st0" d="M-1632.4,957.5l29,43.8h-27.5l-23.2-36.7v36.7h-22.7v-88.4h22.7v39.1l25.9-39.1h25.7L-1632.4,957.5z"/>
		<path class="st0" d="M-1560.7,997c-2,1.5-3.9,2.7-5.8,3.4c-1.9,0.8-3.6,1.4-5.3,1.8s-3.1,0.6-4.5,0.7c-1.4,0.1-2.6,0.1-3.6,0.1
			c-4.4,0-8.2-0.6-11.5-1.8c-3.2-1.2-5.9-2.6-8.1-4.3c-2.2-1.7-4-3.5-5.3-5.5c-1.3-2-2.3-3.8-2.9-5.4c-0.8-2.2-1.3-4.3-1.5-6.5
			c-0.3-2.2-0.4-4.6-0.5-7.4h21.5c0,2.2,0.2,4.2,0.6,6.1c0.4,1.9,1.5,3.4,3.4,4.4c0.4,0.2,1,0.5,1.6,0.8c0.7,0.2,1.5,0.4,2.6,0.4
			c2.3,0,4.1-0.7,5.5-2.1c1.4-1.4,2.1-3.2,2.1-5.4c0-2.7-0.8-4.7-2.4-6.1c-1.6-1.4-3.5-2.6-5.6-3.7l-4.1-1.6
			c-1.7-0.7-3.3-1.4-4.8-2.1c-1.5-0.7-3.1-1.5-4.7-2.3c-1-0.6-2.3-1.4-3.9-2.6s-3.2-2.6-4.7-4.5c-1.5-1.9-2.8-4.1-3.9-6.8
			c-1.1-2.6-1.7-5.7-1.7-9.2c0-1,0.1-2.2,0.2-3.6c0.1-1.4,0.5-2.9,1-4.5c0.5-1.6,1.3-3.3,2.4-5.1c1-1.8,2.5-3.5,4.3-5.3
			c2-1.9,4.1-3.4,6.3-4.6c2.2-1.1,4.3-2,6.3-2.6c2-0.6,3.8-1,5.4-1.1c1.6-0.2,2.9-0.2,3.9-0.2c1,0,2.4,0.1,4.1,0.2
			c1.7,0.1,3.6,0.6,5.8,1.3c2.7,0.9,5,2,6.9,3.4c2,1.3,3.6,2.8,4.9,4.3c1.3,1.5,2.4,3,3.2,4.4c0.8,1.5,1.5,2.7,1.9,3.7
			c0.2,0.5,0.3,1,0.5,1.4c0.2,0.4,0.3,0.8,0.4,1.3c0.2,0.4,0.3,0.9,0.3,1.3c0,0.5,0.1,0.9,0.3,1.3c0.2,0.9,0.2,1.8,0.2,2.6
			c0,0.8,0,1.8,0.2,2.9h-20.9c0-1.2,0-2-0.1-2.5c0-0.5-0.1-1-0.3-1.4c-0.4-1.5-1.3-2.7-2.5-3.5c-1.3-0.8-2.7-1.3-4.3-1.3
			c-2.1,0-3.8,0.6-5,1.9s-1.9,3-1.9,5.1c0,0.9,0.1,1.7,0.4,2.3c0.3,0.6,0.6,1.1,0.8,1.4c1,1.3,2.4,2.4,4.1,3.4c1,0.5,2.1,1,3.2,1.5
			c1.1,0.5,2.5,1.1,4.1,1.8c3.8,1.8,6.9,3.3,9.3,4.7c2.3,1.4,4.1,2.6,5.3,3.7c0.7,0.5,1.3,1,1.8,1.6c0.8,0.7,1.5,1.5,2.3,2.6
			c2.2,2.9,3.4,5.6,3.8,8.1c0.4,2.5,0.6,4.4,0.6,5.8c0,1.3-0.1,2.9-0.3,4.8c-0.2,1.8-0.7,3.8-1.5,5.8c-0.8,2-2,4.2-3.5,6.3
			C-1555.9,992.9-1558,995-1560.7,997z"/>
		<path class="st0" d="M-1529.6,996.4c-1.4,1.7-3.1,2.9-4.9,3.6s-3.9,1.2-6.1,1.4h-2.3h-3.6V991c3.7,0.1,6-0.6,7.1-2.2
			c1.1-1.5,1.5-4.1,1.3-7.6h-8.4v-20.9h20.7v22.5c0,2.6-0.2,4.9-0.6,7.1C-1526.8,992.1-1527.9,994.2-1529.6,996.4z"/>
		<path class="st0" d="M-1499.6,1001.3v-88.4h22.8v67.6h26.5v20.8H-1499.6z"/>
		<path class="st0" d="M-1372.8,986.6c-4.3,5.3-9.5,9.3-15.7,12.1c-6.2,2.8-12.7,4.2-19.5,4.2c-6,0-11.9-1.2-17.6-3.6
			c-5.7-2.4-10.7-5.7-15-10c-4.3-4.3-7.6-9.2-10-15c-2.4-5.7-3.6-11.6-3.6-17.6c0-1.3,0.1-3.1,0.3-5.3c0.2-2.2,0.7-4.6,1.4-7.3
			c0.8-2.7,1.9-5.5,3.3-8.5c1.5-3,3.4-5.9,5.9-8.8c2.1-2.5,4.5-4.8,7.2-6.8c2.7-2,5.6-3.7,8.6-5.1s6.2-2.4,9.5-3.2
			c3.3-0.8,6.6-1.1,9.8-1.1c3.8,0,7.2,0.4,10.5,1.3c3.2,0.8,6.1,1.8,8.6,3c2.5,1.2,4.7,2.4,6.6,3.6c1.8,1.3,3.3,2.3,4.3,3.1
			c5.1,4.3,9.1,9.6,11.9,15.8c2.8,6.2,4.3,12.6,4.3,19.4c0,1.3-0.1,3.1-0.3,5.3c-0.2,2.2-0.7,4.6-1.4,7.2c-0.8,2.6-1.9,5.4-3.3,8.4
			C-1368.5,980.8-1370.4,983.7-1372.8,986.6z M-1384.7,948.2c-0.9-2.4-2.1-4.6-3.7-6.6c-1.5-2-3.3-3.6-5.4-5.1
			c-2-1.4-4.3-2.5-6.7-3.3c-2.4-0.8-4.9-1.1-7.5-1.1c-0.8,0-1.8,0.1-3.1,0.3c-1.3,0.2-2.8,0.5-4.3,1c-1.5,0.5-3.2,1.2-4.9,2.1
			c-1.8,0.9-3.4,2.1-5,3.6c-2.4,2.3-4.3,5-5.5,8.1c-1.3,3.1-1.9,6.3-1.9,9.6c0,0.8,0.1,1.8,0.2,3.1c0.1,1.3,0.4,2.8,0.9,4.4
			c0.5,1.6,1.2,3.3,2.2,5c1,1.8,2.3,3.4,3.9,5c2.3,2.3,4.9,4.1,8.1,5.4c3.1,1.3,6.3,1.9,9.5,1.9c2.4,0,4.6-0.3,6.6-0.9
			c2-0.6,3.7-1.3,5.2-2.1c1.5-0.8,2.8-1.7,3.8-2.6c1-0.9,1.9-1.6,2.4-2.2c0.6-0.6,1.3-1.4,2.1-2.4c0.8-1,1.5-2.2,2.2-3.7
			c0.7-1.5,1.3-3.1,1.8-4.9c0.5-1.8,0.8-3.8,0.8-6.1C-1383.2,953.9-1383.7,950.9-1384.7,948.2z"/>
		<path class="st0" d="M-1304.1,1001.3l-33.2-48.3v48.3h-22.2v-88.4h19.7c3.9,5.6,7.8,11,11.5,16.3c3.8,5.3,7.5,10.8,11.3,16.5
			l10.4,15.9v-48.7h22.3v88.4H-1304.1z"/>
		<path class="st0" d="M-1246.3,1001.3h-34.3v-88.4h34.5c6.2,0,12,1.1,17.3,3.4c5.4,2.3,10.1,5.4,14.1,9.5c4,4,7.2,8.7,9.5,14.1
			c2.3,5.4,3.4,11.1,3.4,17.2c0,6.2-1.2,11.9-3.5,17.3c-2.3,5.3-5.5,10-9.6,14c-4,4-8.8,7.2-14.2,9.5
			C-1234.4,1000.1-1240.2,1001.3-1246.3,1001.3z M-1247.6,932.9h-10.3v47.9h10.3c3.3,0,6.3-0.6,9.1-1.9c2.8-1.3,5.2-3,7.3-5.1
			c2.1-2.2,3.7-4.7,4.9-7.6c1.2-2.9,1.8-6,1.8-9.3c0-3.3-0.6-6.3-1.8-9.3c-1.2-2.9-2.9-5.5-4.9-7.6c-2.1-2.2-4.5-3.9-7.3-5.2
			C-1241.4,933.6-1244.4,932.9-1247.6,932.9z"/>
		<path class="st0" d="M-1119.2,986.6c-4.3,5.3-9.5,9.3-15.7,12.1c-6.2,2.8-12.7,4.2-19.5,4.2c-6,0-11.9-1.2-17.6-3.6
			c-5.7-2.4-10.7-5.7-15-10c-4.3-4.3-7.6-9.2-10-15c-2.4-5.7-3.6-11.6-3.6-17.6c0-1.3,0.1-3.1,0.3-5.3c0.2-2.2,0.7-4.6,1.4-7.3
			c0.8-2.7,1.9-5.5,3.3-8.5c1.5-3,3.4-5.9,5.9-8.8c2.1-2.5,4.5-4.8,7.2-6.8c2.7-2,5.6-3.7,8.6-5.1s6.2-2.4,9.5-3.2
			c3.3-0.8,6.6-1.1,9.8-1.1c3.8,0,7.2,0.4,10.5,1.3c3.2,0.8,6.1,1.8,8.6,3c2.5,1.2,4.7,2.4,6.6,3.6c1.8,1.3,3.3,2.3,4.3,3.1
			c5.1,4.3,9.1,9.6,11.9,15.8c2.8,6.2,4.3,12.6,4.3,19.4c0,1.3-0.1,3.1-0.3,5.3c-0.2,2.2-0.7,4.6-1.4,7.2c-0.8,2.6-1.9,5.4-3.3,8.4
			C-1114.9,980.8-1116.8,983.7-1119.2,986.6z M-1131.1,948.2c-0.9-2.4-2.1-4.6-3.7-6.6c-1.5-2-3.3-3.6-5.4-5.1
			c-2-1.4-4.3-2.5-6.7-3.3c-2.4-0.8-4.9-1.1-7.5-1.1c-0.8,0-1.8,0.1-3.1,0.3c-1.3,0.2-2.8,0.5-4.3,1c-1.5,0.5-3.2,1.2-4.9,2.1
			c-1.8,0.9-3.4,2.1-5,3.6c-2.4,2.3-4.3,5-5.5,8.1c-1.3,3.1-1.9,6.3-1.9,9.6c0,0.8,0.1,1.8,0.2,3.1c0.1,1.3,0.4,2.8,0.9,4.4
			c0.5,1.6,1.2,3.3,2.2,5c1,1.8,2.3,3.4,3.9,5c2.3,2.3,4.9,4.1,8.1,5.4c3.1,1.3,6.3,1.9,9.5,1.9c2.4,0,4.6-0.3,6.6-0.9
			c2-0.6,3.7-1.3,5.2-2.1c1.5-0.8,2.8-1.7,3.8-2.6c1-0.9,1.9-1.6,2.4-2.2c0.6-0.6,1.3-1.4,2.1-2.4c0.8-1,1.5-2.2,2.2-3.7
			c0.7-1.5,1.3-3.1,1.8-4.9c0.5-1.8,0.8-3.8,0.8-6.1C-1129.6,953.9-1130.1,950.9-1131.1,948.2z"/>
		<path class="st0" d="M-1050.5,1001.3l-33.2-48.3v48.3h-22.2v-88.4h19.7c3.9,5.6,7.8,11,11.5,16.3c3.8,5.3,7.5,10.8,11.3,16.5
			l10.4,15.9v-48.7h22.3v88.4H-1050.5z"/>
		<path class="st0" d="M-2132.8,1102c-3.2,2.7-6.5,4.5-10,5.6c-3.5,1.1-7.3,1.6-11.4,1.6c-3.1,0-6.1-0.3-9.1-1
			c-3-0.7-5.8-1.7-8.4-3.1c-2.6-1.4-4.9-3.2-6.9-5.4c-2-2.2-3.7-4.9-4.8-7.9c-0.3-0.9-0.6-1.8-0.8-2.8c-0.2-0.9-0.4-1.8-0.6-2.8
			c-0.2-0.7-0.3-1.4-0.3-2.3c0-0.9-0.1-1.9-0.3-3.2h22.3c0.1,0.5,0.1,0.9,0.1,1.3c0,0.4,0,0.7,0.1,0.9c0.1,0.3,0.1,0.6,0.2,0.8
			c0,0.2,0.1,0.5,0.2,0.8c0.7,1.7,1.8,3,3.3,3.9c1.5,1,3.2,1.4,5.1,1.4c2.7,0,4.8-0.9,6.3-2.8c1.5-1.8,2.3-4,2.3-6.4
			c0-0.8-0.2-1.9-0.5-3.4c-0.3-1.5-1.3-2.8-3-4c-1.4-0.9-2.8-1.5-4.1-1.6c-1.3-0.2-2.8-0.2-4.4-0.2h-5.9v-16.9h3.1
			c2.2,0,4.1-0.3,5.9-0.8c1.8-0.5,3.3-1.8,4.4-3.8c0.3-0.6,0.6-1.4,0.9-2.3c0.3-1,0.4-2.2,0.4-3.7c0-1.9-0.5-3.7-1.4-5.3
			c-0.9-1.6-2.5-2.4-4.6-2.4c-2,0-3.5,0.7-4.6,2c-1.1,1.3-1.8,2.8-2,4.5v1.9h-21.7c0.2-2.2,0.5-4.2,0.8-5.9c0.3-1.8,0.7-3.5,1.3-5
			c0.5-1.5,1.3-3,2.3-4.4c1-1.4,2.2-2.8,3.7-4.3c0.4-0.4,1.3-1.2,2.8-2.4c1.5-1.1,3.1-2,4.9-2.9c0.7-0.3,1.4-0.5,2.1-0.8
			c0.8-0.3,1.8-0.5,3.3-0.9c0.7-0.2,1.7-0.4,3-0.6c1.3-0.2,2.9-0.3,4.8-0.3c2.5,0,4.7,0.2,6.7,0.7c2,0.5,3.4,0.9,4.2,1.2
			c4.8,1.8,8.6,4.6,11.6,8.4c3,3.9,4.5,8.4,4.5,13.7c0,6.1-2.3,11.3-6.8,15.5c-0.4,0.3-0.9,0.7-1.4,1.1c-0.5,0.4-1.4,1-2.6,1.9
			l4.3,2.4c3.2,1.7,5.4,3.5,6.7,5.4c1.3,2,2.2,3.7,2.8,5.1c0.3,0.7,0.6,1.7,1,3.1c0.4,1.4,0.6,3.2,0.6,5.4c0,1.1-0.1,2.4-0.4,4
			c-0.3,1.6-0.7,3.3-1.4,5.1c-0.7,1.8-1.7,3.8-3.1,5.8C-2128.8,1098.2-2130.6,1100.1-2132.8,1102z"/>
		<path class="st0" d="M-2113.1,1107.5V1036h-10.1v-16.9h32.3v88.4H-2113.1z"/>
		<path class="st0" d="M-2039.5,1103.2c-2,1.5-3.9,2.7-5.8,3.4c-1.9,0.8-3.6,1.4-5.3,1.8c-1.6,0.4-3.1,0.6-4.5,0.7
			c-1.4,0.1-2.6,0.1-3.6,0.1c-4.4,0-8.2-0.6-11.5-1.8c-3.2-1.2-5.9-2.6-8.1-4.3c-2.2-1.7-4-3.5-5.3-5.5c-1.3-2-2.3-3.8-2.9-5.4
			c-0.8-2.2-1.3-4.3-1.5-6.5c-0.3-2.2-0.4-4.6-0.5-7.4h21.5c0,2.2,0.2,4.2,0.6,6.1c0.4,1.9,1.5,3.4,3.4,4.4c0.4,0.3,1,0.5,1.6,0.8
			c0.7,0.3,1.5,0.4,2.6,0.4c2.3,0,4.1-0.7,5.5-2.1c1.4-1.4,2.1-3.2,2.1-5.4c0-2.7-0.8-4.7-2.4-6.1c-1.6-1.4-3.5-2.6-5.6-3.7
			l-4.1-1.6c-1.7-0.7-3.3-1.4-4.8-2.1c-1.5-0.7-3.1-1.5-4.7-2.3c-1-0.6-2.3-1.4-3.9-2.6c-1.6-1.1-3.2-2.6-4.7-4.5
			c-1.5-1.9-2.8-4.1-3.9-6.8c-1.1-2.6-1.7-5.7-1.7-9.2c0-1,0.1-2.2,0.2-3.6c0.1-1.4,0.5-2.9,1-4.5c0.5-1.6,1.3-3.3,2.4-5.1
			c1-1.8,2.5-3.5,4.3-5.3c2-1.9,4.1-3.4,6.3-4.6c2.2-1.1,4.3-2,6.3-2.6c2-0.6,3.8-1,5.4-1.1c1.6-0.2,2.9-0.3,3.9-0.3
			c1,0,2.4,0.1,4.1,0.2c1.7,0.1,3.6,0.6,5.8,1.3c2.7,0.9,5,2,6.9,3.4c2,1.3,3.6,2.8,4.9,4.3c1.3,1.5,2.4,3,3.2,4.4
			c0.8,1.5,1.5,2.7,1.9,3.7c0.2,0.5,0.3,1,0.5,1.4c0.2,0.4,0.3,0.8,0.4,1.3c0.2,0.4,0.3,0.9,0.3,1.3c0,0.5,0.1,0.9,0.3,1.3
			c0.2,0.9,0.2,1.8,0.2,2.6c0,0.8,0,1.8,0.2,2.9h-20.9c0-1.2,0-2-0.1-2.5c0-0.5-0.1-1-0.3-1.4c-0.4-1.5-1.3-2.7-2.5-3.5
			c-1.3-0.8-2.7-1.3-4.3-1.3c-2.1,0-3.8,0.6-5,1.9c-1.3,1.3-1.9,3-1.9,5.1c0,0.9,0.1,1.7,0.4,2.3c0.3,0.6,0.6,1.1,0.8,1.4
			c1,1.3,2.4,2.4,4.1,3.4c1,0.5,2.1,1,3.2,1.5c1.1,0.5,2.5,1.1,4.1,1.8c3.8,1.8,6.9,3.3,9.3,4.7c2.3,1.4,4.1,2.6,5.3,3.7
			c0.7,0.5,1.3,1,1.8,1.6c0.8,0.7,1.5,1.5,2.3,2.6c2.2,2.9,3.4,5.6,3.8,8.1c0.4,2.5,0.6,4.4,0.6,5.8c0,1.3-0.1,2.9-0.3,4.8
			c-0.2,1.8-0.7,3.8-1.5,5.8c-0.8,2-2,4.2-3.5,6.3C-2034.7,1099.1-2036.8,1101.2-2039.5,1103.2z"/>
		<path class="st0" d="M-1987.6,1039.1v68.3h-22.4V1039h-17.3v-19.9h57.3v20H-1987.6z"/>
		<path class="st0" d="M-1876.2,1094.7c-1,1.2-2.6,2.8-4.9,4.8c-2.3,2-5.3,3.8-9.3,5.3c-3.3,1.3-6.6,2-9.6,2.3
			c-3.1,0.3-6.4,0.4-9.9,0.4h-33.8v-88.4h34.8c0.6,0,1.4,0,2.6-0.1c1.1,0,2.5,0,4.1,0.2c1.5,0.2,3.1,0.4,4.9,0.6
			c1.8,0.2,3.6,0.6,5.4,1.2c3.3,1.1,6.4,2.7,9.3,4.7c2.8,2,5.3,4.4,7.4,7.1c2.1,2.7,3.9,5.6,5.4,8.8c1.5,3.2,2.6,6.5,3.4,9.8
			c0.2,1.2,0.5,2.7,0.8,4.4c0.3,1.8,0.4,4.1,0.4,6.8c0,1.5-0.1,3.4-0.2,5.8c-0.2,2.3-0.6,4.9-1.3,7.8c-0.7,2.9-1.8,5.9-3.3,9.1
			C-1871.4,1088.5-1873.5,1091.6-1876.2,1094.7z M-1888.1,1057.5c-0.8-3.8-2.2-7.2-4.3-10.3c-2.1-3.1-5-5.3-8.8-6.8
			c-1.9-0.7-3.7-1.1-5.4-1.2c-1.7-0.1-3.6-0.2-5.7-0.2h-8.8v47.9h12.6c1.8,0,3.4-0.1,4.8-0.2c1.5-0.1,3-0.5,4.6-1.2
			c2.8-1.2,5-2.9,6.6-5.1c1.5-2.3,2.7-4.5,3.4-6.9c0.8-2.3,1.2-4.5,1.3-6.4c0.1-1.9,0.2-3.1,0.2-3.6c0-0.6,0-1.4-0.1-2.4
			C-1887.5,1060.2-1887.7,1058.9-1888.1,1057.5z"/>
		<path class="st0" d="M-1862.5,1107.5v-88.4h50.2v19.8h-26.9v13.1h26.9v20.9h-26.8v14.3h27v20.3H-1862.5z"/>
		<path class="st0" d="M-1723.2,1085.1c-2.2,3.9-4.6,7.2-7.3,10c-2.7,2.7-5.3,5-8,6.8c-2.7,1.8-5.2,3.2-7.6,4.1
			c-2.4,1-4.4,1.6-6,1.9c-0.9,0.2-2.3,0.4-4.3,0.8c-1.9,0.3-4.2,0.5-6.8,0.5c-5.6,0-10.6-0.8-14.9-2.3c-4.3-1.5-8.1-3.3-11.3-5.4
			c-3.2-2.1-5.8-4.3-7.9-6.6c-2.1-2.3-3.7-4.3-4.8-5.9c-0.8-1-1.6-2.3-2.4-3.8c-0.9-1.5-1.7-3.4-2.5-5.4c-0.8-2.1-1.4-4.4-1.9-7
			c-0.5-2.6-0.8-5.5-0.8-8.6c0-6,0.9-11.3,2.6-15.9c1.7-4.6,3.8-8.6,6.2-11.9c2.4-3.3,4.9-6,7.6-8.1c2.6-2.1,4.8-3.7,6.6-4.8
			c0.9-0.6,2.1-1.2,3.6-1.9c1.5-0.7,3.1-1.3,5.1-1.9c1.9-0.6,4.1-1.1,6.4-1.6c2.4-0.4,5-0.6,7.9-0.6c1.4,0,3.2,0.1,5.3,0.3
			c2.1,0.2,4.5,0.7,7,1.4c2.5,0.7,5.3,1.8,8.1,3.2c2.9,1.4,5.8,3.3,8.7,5.6c2.8,2.3,5,4.5,6.9,6.9c1.8,2.3,3.3,4.6,4.5,6.9
			c1,2.1,1.9,4.3,2.8,6.5c0.3,0.8,0.5,1.5,0.8,2.1c0.3,0.7,0.5,1.3,0.6,2h-24.7c-0.4-0.7-0.8-1.3-1.1-1.8c-0.3-0.5-0.6-1-0.9-1.4
			c-2.2-2.9-4.8-5.1-7.8-6.6c-3-1.5-6.4-2.2-10-2.2c-2.3,0-4.3,0.2-5.9,0.6c-1.6,0.4-2.8,0.8-3.6,1.3c-4.3,1.9-7.7,4.8-10.2,8.6
			c-2.5,3.8-3.8,8-3.7,12.7c0,2.2,0.2,4,0.6,5.4c0.4,1.4,0.8,2.5,1.1,3.3c0.4,1,1.1,2.3,2.1,3.9c1,1.6,2.4,3.2,4.1,4.8
			c1.8,1.5,3.9,2.9,6.4,3.9c2.5,1.1,5.5,1.6,8.9,1.6c1.8,0,3.4-0.1,4.6-0.4c1.3-0.3,2.3-0.6,3-0.8c0.8-0.2,2.1-0.8,4.1-1.9
			c2-1.1,3.8-2.7,5.4-4.8c0.3-0.2,0.5-0.5,0.7-0.8c0.2-0.3,0.4-0.6,0.6-0.8l1.6-2.5h24.5c-1.1,3.1-1.9,5.4-2.5,6.9
			C-1721.9,1082.6-1722.6,1083.9-1723.2,1085.1z"/>
		<path class="st0" d="M-1716,1107.5v-88.4h50.2v19.8h-26.9v13.1h26.9v20.9h-26.8v14.3h27v20.3H-1716z"/>
		<path class="st0" d="M-1587.7,1107.5v-35.7c0-1.3,0-2.7,0-4.1s0-3,0.1-4.8c0-1.8,0.1-3.8,0.2-6.1c0.1-2.3,0.2-5,0.2-8.2
			c-1,3-1.8,5.6-2.5,7.8c-0.7,2.2-1.3,4.2-1.8,5.9c-0.5,1.8-1,3.3-1.5,4.7c-0.5,1.4-0.9,2.7-1.3,4.1c-1.2,3.3-2.3,6.5-3.3,9.8
			c-1,3.3-2.1,6.6-3.3,9.8c-0.9,2.7-1.9,5.4-2.8,8.1c-1,2.8-1.9,5.6-2.8,8.5h-16.4l-9.4-27.9c-0.8-2.2-1.6-4.3-2.3-6.4
			c-0.7-2.1-1.3-4.4-2-6.7l-5.4-17.9c0.1,3.3,0.1,6.1,0.2,8.5c0,2.4,0.1,4.6,0.1,6.4c0,1.9,0.1,3.5,0.1,5c0,1.5,0,2.9,0,4.2v34.8
			h-20.3v-88.4h29.7c1.9,5.8,3.8,11.3,5.6,16.7c1.8,5.4,3.6,10.8,5.3,16.3c1.1,3.3,2.2,6.8,3.3,10.3c1.1,3.5,2.4,7.7,3.9,12.6
			c1.4-4.8,2.6-9,3.7-12.5c1-3.5,2.1-6.8,3.1-10.1c1-3.3,2-6.5,3.1-9.6c1-3.2,2.1-6.4,3.2-9.6c0.7-2.3,1.4-4.5,2.1-6.8
			s1.6-4.7,2.5-7.4h30v88.4H-1587.7z"/>
		<path class="st0" d="M-1510.9,1101.6c-3.5,2.8-7.2,4.4-11.1,5c-3.9,0.6-7.9,0.9-12.1,0.9h-28.5v-88.4h32.7c3.5,0,6.8,0.3,9.8,0.8
			c3,0.5,5.8,2.1,8.5,4.6c0.6,0.7,1.3,1.5,2.1,2.6c0.8,1,1.5,2.3,2.3,3.7c0.7,1.4,1.3,3.1,1.8,4.9c0.5,1.9,0.7,3.9,0.7,6.2
			c0,0.8,0,1.9-0.1,3.2c-0.1,1.3-0.4,2.7-0.8,4.1c-0.5,1.4-1.2,2.9-2.2,4.3c-1,1.5-2.4,2.8-4.3,4.1l-2.6,1.9
			c1.4,0.8,2.5,1.3,3.1,1.6c0.7,0.3,1.2,0.6,1.6,0.9c0.9,0.6,1.6,1,2.1,1.4c0.8,0.6,1.6,1.3,2.4,2.3c0.9,0.9,1.7,2,2.4,3.4
			c0.7,1.3,1.3,2.9,1.8,4.7c0.5,1.8,0.8,3.9,0.8,6.2c0,1-0.1,2.4-0.3,4.1c-0.2,1.7-0.6,3.6-1.3,5.6c-0.7,2-1.8,4.1-3.1,6.2
			S-1508.6,1099.8-1510.9,1101.6z M-1530.3,1037.9c-0.5-0.2-0.9-0.3-1.3-0.4c-0.4-0.1-1.1-0.1-2.1-0.1h-6.9v15.8h7.1
			c0.2,0,0.6,0,1.4-0.1c0.8-0.1,1.4-0.2,2-0.4c1.7-0.6,2.9-1.6,3.6-2.9c0.8-1.4,1.1-2.9,1.1-4.6c0-1.7-0.4-3.2-1.2-4.5
			C-1527.3,1039.3-1528.6,1038.4-1530.3,1037.9z M-1523,1076.9c-0.2-1.1-0.5-2-1-2.9c-1.1-1.8-2.5-3-4.2-3.4
			c-1.7-0.5-3.5-0.7-5.3-0.7h-7.1v18.4h6.8c1.4,0,3-0.2,4.9-0.6c1.4-0.3,2.5-0.9,3.4-1.8c0.8-0.8,1.5-1.7,1.9-2.6
			c0.4-0.9,0.7-1.7,0.8-2.6c0.1-0.8,0.1-1.5,0.1-1.9c0-0.3,0-0.5,0-0.9C-1522.8,1077.7-1522.9,1077.3-1523,1076.9z"/>
		<path class="st0" d="M-1498.2,1107.5v-88.4h50.2v19.8h-26.9v13.1h26.9v20.9h-26.8v14.3h27v20.3H-1498.2z"/>
		<path class="st0" d="M-1403.5,1107.5l-18-28.3v28.3h-22.4v-88.4h32.8c4.2,0,8.1,0.3,11.6,0.9c3.6,0.6,7.1,2.2,10.6,4.9
			c1.1,0.8,2.3,1.9,3.5,3.3s2.4,3.1,3.6,5.1s2.1,4.3,2.8,6.9c0.8,2.6,1.1,5.7,1.1,9.1c0,3.5-0.4,6.6-1.3,9.3c-0.8,2.7-1.9,5-3.1,6.9
			c-1.2,2-2.5,3.6-3.9,4.9c-1.4,1.3-2.6,2.3-3.7,3.1c-0.9,0.7-1.9,1.3-2.9,1.8c-1,0.5-2.7,1.2-5,2.1l21.4,30.2H-1403.5z
			 M-1401.9,1043.6c-1.4-2.3-3.2-3.6-5.3-4.1c-2.1-0.5-4.4-0.7-6.8-0.7h-7.5v24.3h7.1c0.3-0.1,0.6-0.1,1-0.1c0.6,0,1,0,1.4-0.1
			c0.7-0.1,1.3-0.2,1.9-0.3c0.6-0.1,1.2-0.2,1.9-0.4c0.8-0.2,1.6-0.6,2.5-1.2c0.9-0.5,1.8-1.3,2.6-2.3c0.8-1,1.5-2.1,2.1-3.6
			c0.6-1.4,0.9-3.1,0.9-5c0-1.2-0.1-2.3-0.3-3.4C-1400.8,1045.8-1401.2,1044.7-1401.9,1043.6z"/>
		<path class="st0" d="M-1350,1107.5v-16.5c3-2.8,5.9-5.4,8.6-7.9c2.8-2.5,5.5-5.1,8.1-7.7l7.1-6.9c2.4-2.3,4.5-4.5,6.2-6.4
			c1.7-2,3.1-3.8,4.3-5.5c1.1-1.7,2-3.4,2.5-5.1c0.5-1.7,0.8-3.4,0.8-5.1c0-0.5,0-0.9-0.1-1.3c0-0.4-0.1-0.7-0.2-1.1
			c-0.1-0.3-0.1-0.5-0.2-0.7c0-0.2-0.1-0.5-0.2-0.8c-0.6-1.6-1.5-2.9-2.8-3.9c-1.3-1-2.8-1.5-4.6-1.5c-1.5,0-2.8,0.4-4,1.3
			c-1.7,1.2-2.8,2.6-3.4,4.4c-0.6,1.8-0.9,3.7-1,5.6c-0.1,0.5-0.1,1-0.1,1.6c0,0.5,0,1.2,0,1.9l-22-0.1v-3.8c0-0.8,0.1-1.7,0.2-2.6
			c0.1-0.9,0.3-1.9,0.4-2.9c0.4-2.1,1.1-4.3,1.9-6.5c0.9-2.3,2.2-4.5,3.9-6.6c1-1.3,2.2-2.6,3.7-3.9c1.5-1.4,3.3-2.6,5.4-3.8
			c2.1-1.2,4.6-2.1,7.4-2.9c2.8-0.8,6.1-1.1,9.8-1.1c0.8,0,1.8,0,3.1,0.1c1.3,0.1,2.8,0.3,4.4,0.6c1.6,0.3,3.4,0.8,5.2,1.4
			c1.8,0.7,3.7,1.6,5.6,2.8c0.9,0.8,2,1.7,3.3,2.9c1.3,1.2,2.5,2.7,3.8,4.4c1.2,1.8,2.2,3.9,3.1,6.3c0.8,2.4,1.3,5.1,1.3,8.2v1.8
			c0,0.3,0,0.7-0.1,1c0,0.3-0.1,0.7-0.2,1.1c-0.2,0.9-0.3,1.9-0.5,2.8c-0.2,1-0.5,2-0.9,3.1c-0.8,2-1.7,4-2.9,5.9
			c-1.2,1.9-2.5,3.8-3.9,5.6c-1.4,1.8-2.9,3.6-4.4,5.3c-1.5,1.7-3.1,3.4-4.6,4.9l-10.8,11.1h29.2v20.7H-1350z"/>
		<path class="st0" d="M-1204.2,1093.8c-4.3,5-9.6,8.9-15.7,11.6c-6.1,2.7-12.5,4.1-19.1,4.1c-6,0-11.9-1.2-17.6-3.6
			c-5.7-2.4-10.7-5.7-15-10c-4.3-4.3-7.6-9.2-10-15c-2.4-5.7-3.6-11.6-3.6-17.7c0-5.8,1-11.3,3.1-16.6c2.1-5.3,5-10.1,8.8-14.3
			c4.3-4.8,9.5-8.6,15.5-11.3c6-2.7,12.3-4,18.8-4c1.3,0,3.1,0.1,5.3,0.3c2.2,0.2,4.7,0.7,7.3,1.5c2.7,0.8,5.5,1.9,8.5,3.4
			c3,1.5,6,3.4,8.9,5.9c5.1,4.3,9.1,9.6,11.9,15.8c2.8,6.2,4.3,12.6,4.3,19.4c0,5.5-1,10.9-2.9,16.1
			C-1197.5,1084.8-1200.4,1089.6-1204.2,1093.8z M-1219.8,1047.6c-1.7-2-3.4-3.6-5.3-4.8c-1.8-1.2-3.6-2.1-5.4-2.7
			c-1.8-0.6-3.4-1-4.9-1.2c-1.5-0.2-2.7-0.2-3.5-0.2c-3.5,0-6.9,0.8-10.1,2.3c-4.3,1.9-7.8,4.9-10.5,8.9c-2.7,4-4,8.5-4,13.5
			c0,0.8,0.1,1.8,0.2,3.1c0.1,1.3,0.4,2.8,0.9,4.3c0.5,1.5,1.2,3.2,2.2,4.9c1,1.8,2.3,3.5,3.9,5.1c2.4,2.3,5.1,4.1,8.1,5.3
			c3,1.2,6.1,1.8,9.3,1.8c0.8,0,1.7-0.1,2.8-0.2c1.1-0.1,2.4-0.4,3.8-0.8c1.4-0.4,2.9-1,4.5-1.8c1.6-0.8,3.1-1.8,4.6-3.1
			c2-1.6,3.6-3.3,4.8-5.2c1.2-1.9,2.1-3.7,2.7-5.4c0.6-1.8,1-3.4,1.2-4.8c0.2-1.5,0.2-2.6,0.2-3.6
			C-1214.2,1057.4-1216,1052.1-1219.8,1047.6z"/>
		<path class="st0" d="M-1183.8,1107.5V1036h-10.1v-16.9h32.3v88.4H-1183.8z"/>
		<path class="st0" d="M-1107,1104c-1.7,1.2-4.2,2.4-7.4,3.6c-3.3,1.3-7.5,1.9-12.6,1.9c-1.2,0-2.9-0.1-5.3-0.3
			c-2.3-0.2-4.9-0.8-7.8-1.8c-2.8-1-5.3-2.4-7.6-4.1c-2.3-1.7-4.3-3.7-6-6c-1.7-2.3-3-4.8-4-7.5c-1-2.7-1.4-5.6-1.4-8.6
			c0-2.8,0.4-5.4,1.2-7.6c0.8-2.2,1.7-4.1,2.8-5.8c1.1-1.6,2.2-3,3.4-4.1c1.2-1.1,2.1-1.9,2.9-2.4l3.1-2c-1.5-1.2-2.7-2.1-3.5-2.9
			c-0.9-0.8-1.6-1.6-2.2-2.3c-0.9-1.3-1.7-2.8-2.2-4.6c-0.6-1.8-0.9-4-0.9-6.7c0-2.7,0.3-4.8,0.9-6.5c0.6-1.7,1.1-3,1.6-3.9
			c0.7-1.3,1.8-2.9,3-4.6c1.3-1.8,3-3.4,5.1-4.9c2.1-1.5,4.7-2.8,7.6-3.8c3-1,6.4-1.6,10.5-1.6c0.8,0,1.7,0,2.9,0.1
			c1.2,0.1,2.5,0.3,3.9,0.6c1.5,0.3,3,0.8,4.7,1.4c1.7,0.7,3.3,1.6,5,2.8c2.9,2.2,5.4,4.9,7.3,8.2c2,3.3,2.9,6.9,2.9,10.7
			c0,3.5-0.6,6.4-1.7,8.8c-1.1,2.4-2.1,4-2.9,4.9c-0.4,0.6-0.9,1.1-1.5,1.6c-0.6,0.5-1.5,1.2-2.6,2.1c1.2,0.7,2,1.1,2.4,1.4
			c0.5,0.2,0.8,0.5,1.1,0.8c0.2,0.2,0.5,0.4,0.8,0.6c0.3,0.2,0.5,0.4,0.9,0.7c1.9,1.5,3.4,3.2,4.6,5.1c1.1,1.9,2,3.7,2.6,5.4
			c0.6,1.8,1,3.4,1.1,4.8c0.2,1.5,0.2,2.6,0.2,3.4c0,3.3-0.5,6.2-1.6,8.7c-1,2.5-2.3,4.8-3.6,6.7c-1.4,1.9-2.8,3.5-4.2,4.8
			C-1105,1102.5-1106.1,1103.4-1107,1104z M-1126.7,1069.3c-1.5,0-2.9,0.3-4.1,0.8c-1.3,0.5-2.4,1.3-3.3,2.3c-1,1-1.7,2.1-2.3,3.3
			c-0.5,1.3-0.8,2.6-0.8,4c0.2,0.7,0.3,1.3,0.3,1.8c0,0.5,0.1,0.9,0.3,1.3c0.4,1.7,1.3,3.1,2.6,4.4c1.3,1.3,2.7,2.2,4.1,2.5
			c1.4,0.3,2.4,0.5,3.2,0.5c2.9,0,5.4-1,7.4-3.1c2-2,3-4.5,3-7.3c0-1.5-0.3-2.9-0.8-4.1c-0.5-1.3-1.3-2.3-2.3-3.3
			c-1-0.9-2.1-1.6-3.3-2.2C-1123.9,1069.6-1125.3,1069.3-1126.7,1069.3z M-1126.8,1036.1c-2.3,0-4.3,0.8-5.8,2.4
			c-1.5,1.6-2.3,3.5-2.3,5.8c0,0.5,0.1,1.3,0.3,2.3c0.2,1,0.9,2.1,2.1,3.2c1.2,1.2,2.3,1.9,3.3,2.1c1,0.2,1.8,0.3,2.3,0.3
			c2.3,0,4.3-0.8,5.8-2.3c1.5-1.5,2.3-3.4,2.3-5.7c0-2.3-0.8-4.3-2.3-5.8S-1124.5,1036.1-1126.8,1036.1z"/>
	</g>
	<g>
		<path class="st1" d="M-1922.2,830.3l-185.4-270.5v270.5h-141.7v-532h124.3c23.1,33.2,45.8,65.6,68.2,97.2
			c22.3,31.6,44.8,64.6,67.4,98.7l49.7,76.1v-272h142.4v532H-1922.2z"/>
		<path class="st1" d="M-1491.2,632.2v198.2h-146.2V634.4l-159-336.1h159l63.6,152.2c2,5,3.9,9.9,5.7,14.7c1.8,4.8,3.7,9.9,5.7,15.4
			c4-9,7.7-17.8,11-26.4c3.3-8.5,6.9-17.3,11-26.4l54.5-129.6h151.5L-1491.2,632.2z"/>
		<path class="st1" d="M-1334.5,830.3v-532h302.2v128.1h-155.2V492h155.2v134.9h-154.5v71.6h156v131.9H-1334.5z"/>
	</g>
	<g>
		<g>
			<path class="st0" d="M-1049.9,122.4c0,48.7-39.8,88.1-88.5,88.1l-62.5,0V34.3l62.9,0C-1089.4,34.3-1049.9,73.8-1049.9,122.4
				 M-1097.3,122.1c0-26.8-20.9-46.2-46.8-46.3l-10.4-0.1v92.9l10.4,0C-1118.2,168.6-1097.3,148.9-1097.3,122.1"/>
			<path class="st0" d="M-1950.8,122.1c0,51.4-42.1,93.1-93.5,93.1l-2.4,0v-48.5h4.3c23.8,0,43.2-19.9,43.2-44.6
				c0-24.7-19.3-44.6-43.2-44.7l-4.3,0V29h2.9C-1992.4,29-1950.8,70.7-1950.8,122.1"/>
			<polygon class="st0" points="-1843.9,73.5 -1897.6,73.5 -1897.6,100 -1843.9,100 -1843.9,141.4 -1897.3,141.4 -1897.3,170.4 
				-1843.4,170.4 -1843.4,210.6 -1944,210.6 -1944,34.3 -1843.9,34.3 			"/>
			<polygon class="st0" points="-1730.9,74 -1788.4,74 -1788.4,102.2 -1731.2,102.2 -1731.2,143.4 -1788.4,143.4 -1788.4,210.6 
				-1833.1,210.6 -1833.1,34.3 -1730.9,34.3 			"/>
			<polygon class="st0" points="-1619.8,73.5 -1673.5,73.5 -1673.5,100 -1619.8,100 -1619.8,141.4 -1673.3,141.4 -1673.3,170.4 
				-1619.3,170.4 -1619.3,210.6 -1720,210.6 -1720,34.3 -1619.8,34.3 			"/>
			<path class="st0" d="M-1481.4,100.2c-1.3-2.5-2.7-4.5-4.2-6.7c-8.5-11.2-21.2-17.5-35.5-17.5c-9.2,0-15.7,2.5-19,4
				c-17.2,7.2-27.7,24-27.7,42.5c0.3,8.5,2.2,14.2,3.5,17.2c3.5,8.2,16,28.7,43.2,28.7c7.2,0,12.2-1.5,15.2-2.5
				c2.8-1,12.5-5.5,19.2-13.5c1.8-2.2,2.8-3.7,5.5-8.2h48.9c-3.7,11.5-6,16.5-8.7,21.7c-17,31.5-45.2,42.4-57.7,45.4
				c-3.7,1-11.7,2.5-22,2.5c-44.7,0-68.4-27.5-77.4-40.4c-5.7-8.2-15.2-24.5-15.2-49.7c0-47.9,31.5-72.7,45.7-81.1
				c7.2-4.3,23.5-12,45.9-12c11.5,0,34.9,2,58.2,21c21.7,17.7,28,38.5,31,48.7H-1481.4z"/>
			<polygon class="st0" points="-1323.9,74 -1359.1,74 -1359.1,210.6 -1403.8,210.6 -1403.8,73.7 -1438.3,73.7 -1438.3,34.3 
				-1323.9,34.3 			"/>
			<polygon class="st0" points="-1212.9,73.5 -1266.6,73.5 -1266.6,100 -1212.9,100 -1212.9,141.4 -1266.4,141.4 -1266.4,170.4 
				-1212.4,170.4 -1212.4,210.6 -1313.1,210.6 -1313.1,34.3 -1212.9,34.3 			"/>
			<polygon class="st0" points="-1070.2,38.3 -1070.2,34.1 -1053.9,34.1 -1053.9,38.4 -1059.5,38.4 -1059.5,53.4 -1064.6,53.4 
				-1064.6,38.3 			"/>
			<path class="st0" d="M-1035.6,39.9L-1035.6,39.9l-3.7,13.5h-4.1l-3.7-13.5l-0.2-0.8c0,0.4,0,14.3,0,14.3h-4.5V34.1h7.1l3,11.3
				c0.2,0.7,0.4,1.7,0.4,2.9c0,0.3,0.1,0.6,0.1,0.9c0-0.7,0-1.4,0.1-2c0.1-0.9,0.2-1.4,0.3-1.8l3-11.3h7.1v19.3h-4.8V39.9z"/>
		</g>
		<rect x="-2248.9" y="25.4" class="st0" width="192.9" height="192.9"/>
	</g>
</g>
<g>
	<g>
		<path class="st0" d="M60.7,918.1H35.6L0,828.8h24.8l20.4,53.5l3.8,10.4c1.2-3.5,2.2-6.5,3-8.8c0.8-2.3,1.6-4.5,2.3-6.6
			c1.5-4.2,3-8.4,4.6-12.5c1.5-4.1,3.1-8.3,4.7-12.4c1.4-3.8,2.9-7.6,4.3-11.5c1.4-3.8,2.9-7.9,4.4-12.1h23.2L60.7,918.1z"/>
		<path class="st0" d="M96,918.1v-89.3h22.8v89.3H96z"/>
		<path class="st0" d="M208.7,895.4c-2.2,4-4.6,7.3-7.3,10.1c-2.7,2.7-5.4,5-8.1,6.8c-2.7,1.8-5.3,3.2-7.7,4.2c-2.4,1-4.5,1.6-6.1,2
			c-0.9,0.2-2.4,0.4-4.3,0.8c-1.9,0.3-4.2,0.5-6.8,0.5c-5.7,0-10.7-0.8-15.1-2.3c-4.4-1.5-8.2-3.4-11.4-5.5c-3.2-2.2-5.9-4.4-8-6.7
			c-2.1-2.3-3.7-4.3-4.8-6c-0.8-1-1.6-2.3-2.5-3.9c-0.9-1.6-1.7-3.4-2.5-5.5c-0.8-2.1-1.5-4.5-2-7.1c-0.5-2.6-0.8-5.5-0.8-8.7
			c0-6.1,0.9-11.4,2.6-16.1c1.7-4.6,3.8-8.6,6.3-12c2.4-3.4,5-6.1,7.7-8.2c2.7-2.1,4.9-3.7,6.6-4.8c0.9-0.6,2.1-1.2,3.6-1.9
			c1.5-0.7,3.2-1.3,5.1-2c1.9-0.6,4.1-1.2,6.5-1.6c2.4-0.4,5.1-0.6,8-0.6c1.4,0,3.2,0.1,5.4,0.3c2.2,0.2,4.5,0.7,7.1,1.4
			c2.6,0.7,5.3,1.8,8.2,3.2c2.9,1.4,5.8,3.3,8.8,5.7c2.8,2.3,5.1,4.6,7,7c1.9,2.4,3.4,4.7,4.6,7c1,2.1,1.9,4.3,2.8,6.6
			c0.3,0.8,0.5,1.5,0.8,2.2c0.3,0.7,0.5,1.4,0.6,2H188c-0.4-0.7-0.8-1.3-1.1-1.8c-0.3-0.5-0.6-1-0.9-1.5c-2.2-3-4.8-5.2-7.9-6.6
			c-3.1-1.5-6.4-2.2-10.1-2.2c-2.4,0-4.3,0.2-5.9,0.6c-1.6,0.4-2.8,0.8-3.7,1.3c-4.3,1.9-7.7,4.8-10.3,8.7
			c-2.6,3.8-3.8,8.1-3.7,12.8c0,2.2,0.2,4,0.6,5.4c0.4,1.4,0.8,2.5,1.1,3.3c0.4,1,1.1,2.3,2.2,4c1,1.6,2.4,3.2,4.2,4.8
			c1.8,1.6,3.9,2.9,6.5,4c2.6,1.1,5.6,1.6,9,1.6c1.9,0,3.4-0.1,4.7-0.4c1.3-0.3,2.3-0.6,3-0.8c0.8-0.2,2.1-0.8,4.1-1.9
			c2-1.1,3.8-2.7,5.5-4.8c0.3-0.3,0.5-0.5,0.7-0.8c0.2-0.3,0.4-0.6,0.6-0.8l1.6-2.5h24.8c-1.1,3.1-1.9,5.4-2.5,7
			C210,892.9,209.3,894.3,208.7,895.4z"/>
		<path class="st0" d="M249.8,849v69.1h-22.7v-69.2h-17.5v-20.1h58V849H249.8z"/>
		<path class="st0" d="M346,903.3c-4.3,5.3-9.6,9.4-15.9,12.2c-6.3,2.8-12.8,4.2-19.7,4.2c-6.1,0-12-1.2-17.8-3.6
			c-5.8-2.4-10.8-5.8-15.1-10.1c-4.3-4.3-7.7-9.3-10.1-15.1c-2.4-5.8-3.6-11.7-3.6-17.8c0-1.3,0.1-3.1,0.3-5.3
			c0.2-2.2,0.7-4.7,1.5-7.4c0.8-2.7,1.9-5.6,3.4-8.6c1.5-3,3.5-6,6-8.9c2.1-2.5,4.5-4.8,7.3-6.8c2.7-2,5.6-3.7,8.7-5.1
			c3-1.4,6.2-2.5,9.6-3.2c3.3-0.8,6.6-1.1,9.9-1.1c3.8,0,7.3,0.4,10.6,1.3c3.2,0.8,6.2,1.9,8.7,3c2.6,1.2,4.8,2.4,6.6,3.7
			c1.9,1.3,3.3,2.3,4.3,3.2c5.1,4.4,9.2,9.7,12,15.9c2.9,6.2,4.3,12.8,4.3,19.6c0,1.4-0.1,3.1-0.3,5.3c-0.2,2.2-0.7,4.6-1.5,7.3
			c-0.8,2.7-1.9,5.5-3.4,8.5C350.4,897.4,348.4,900.3,346,903.3z M333.9,864.4c-0.9-2.4-2.2-4.7-3.7-6.6c-1.6-2-3.4-3.7-5.4-5.1
			c-2.1-1.4-4.3-2.5-6.8-3.3c-2.4-0.8-5-1.1-7.6-1.1c-0.8,0-1.8,0.1-3.2,0.3c-1.4,0.2-2.8,0.5-4.4,1c-1.6,0.5-3.2,1.2-5,2.2
			c-1.8,0.9-3.5,2.2-5.1,3.7c-2.4,2.4-4.3,5.1-5.6,8.2c-1.3,3.1-1.9,6.4-1.9,9.7c0,0.8,0.1,1.8,0.2,3.2c0.1,1.4,0.4,2.8,0.9,4.4
			c0.5,1.6,1.2,3.3,2.2,5.1c1,1.8,2.3,3.5,4,5.1c2.3,2.4,5,4.2,8.2,5.4c3.2,1.3,6.3,1.9,9.6,1.9c2.4,0,4.7-0.3,6.6-0.9
			c2-0.6,3.7-1.3,5.3-2.2c1.5-0.8,2.8-1.7,3.9-2.6c1.1-0.9,1.9-1.6,2.5-2.2c0.6-0.6,1.3-1.4,2.1-2.4c0.8-1,1.5-2.3,2.2-3.7
			c0.7-1.5,1.3-3.1,1.8-4.9c0.5-1.8,0.8-3.9,0.8-6.1C335.5,870.2,335,867.2,333.9,864.4z"/>
		<path class="st0" d="M400.4,918.1l-18.2-28.6v28.6h-22.7v-89.3h33.2c4.2,0,8.1,0.3,11.8,0.9c3.6,0.6,7.2,2.2,10.8,4.9
			c1.1,0.8,2.3,2,3.5,3.4c1.3,1.4,2.5,3.1,3.6,5.1c1.1,2,2.1,4.4,2.8,7c0.8,2.7,1.1,5.7,1.1,9.2c0,3.5-0.4,6.7-1.3,9.4
			c-0.8,2.7-1.9,5-3.1,7c-1.2,2-2.5,3.6-3.9,4.9c-1.4,1.3-2.6,2.3-3.7,3.1c-0.9,0.7-1.9,1.3-2.9,1.8c-1,0.5-2.7,1.2-5.1,2.2
			l21.6,30.5H400.4z M402,853.6c-1.4-2.3-3.2-3.6-5.4-4.1c-2.2-0.5-4.5-0.7-6.9-0.7h-7.6v24.5h7.2c0.3-0.1,0.6-0.1,1-0.1
			c0.6,0,1.1,0,1.4-0.1c0.7-0.1,1.3-0.2,1.9-0.3c0.6-0.1,1.2-0.2,1.9-0.4c0.8-0.3,1.6-0.7,2.5-1.2c0.9-0.5,1.8-1.3,2.6-2.3
			c0.8-1,1.5-2.2,2.1-3.6c0.6-1.4,0.9-3.1,0.9-5.1c0-1.2-0.1-2.3-0.3-3.4C403.1,855.8,402.7,854.7,402,853.6z"/>
		<path class="st0" d="M429,918.1v-89.3h22.8v89.3H429z"/>
		<path class="st0" d="M516.7,918.1l-4.4-12.5h-30l-4.2,12.5h-25.7l35.8-89.8h18.6l36.2,89.8H516.7z M496.9,859.3l-8.9,27.7h18.2
			L496.9,859.3z"/>
		<path class="st0" d="M654.6,918.1h-21.9l-9.4-35.2l-4-15.4l-13.5,50.6h-21.1l-25.3-89.3h24.8l8.5,35.1c0.5,2.1,1,4.4,1.5,6.8
			c0.5,2.4,1.3,5.8,2.3,10l3.5-15.8l9.6-36.1h19.7l9.5,34.4l4.6,18.3c0.9-4.6,1.7-8.1,2.3-10.7c0.6-2.6,1.1-5,1.6-7.3l7.8-34.8h22.7
			L654.6,918.1z"/>
		<path class="st0" d="M725.3,918.1l-4.4-12.5h-30l-4.2,12.5H661l35.8-89.8h18.6l36.2,89.8H725.3z M705.6,859.3l-8.9,27.7H715
			L705.6,859.3z"/>
		<path class="st0" d="M793.2,918.1l-18.2-28.6v28.6h-22.7v-89.3h33.2c4.2,0,8.1,0.3,11.8,0.9c3.6,0.6,7.2,2.2,10.8,4.9
			c1.1,0.8,2.3,2,3.5,3.4c1.3,1.4,2.5,3.1,3.6,5.1c1.1,2,2.1,4.4,2.8,7s1.1,5.7,1.1,9.2c0,3.5-0.4,6.7-1.3,9.4c-0.8,2.7-1.9,5-3.1,7
			c-1.2,2-2.5,3.6-3.9,4.9c-1.4,1.3-2.6,2.3-3.7,3.1c-0.9,0.7-1.9,1.3-2.9,1.8c-1,0.5-2.7,1.2-5.1,2.2l21.6,30.5H793.2z
			 M794.8,853.6c-1.4-2.3-3.2-3.6-5.4-4.1c-2.2-0.5-4.5-0.7-6.9-0.7h-7.6v24.5h7.2c0.3-0.1,0.6-0.1,1-0.1c0.6,0,1.1,0,1.4-0.1
			c0.7-0.1,1.3-0.2,1.9-0.3c0.6-0.1,1.2-0.2,1.9-0.4c0.8-0.3,1.6-0.7,2.5-1.2c0.9-0.5,1.8-1.3,2.6-2.3c0.8-1,1.5-2.2,2.1-3.6
			c0.6-1.4,0.9-3.1,0.9-5.1c0-1.2-0.1-2.3-0.3-3.4C795.9,855.8,795.5,854.7,794.8,853.6z"/>
		<path class="st0" d="M821.8,918.1v-89.3h50.7v20h-27.2V862h27.2v21.1h-27.1v14.4h27.3v20.5H821.8z"/>
		<path class="st0" d="M926.8,918.1v-33.7h-27.3v33.7h-22.9v-89.3h22.9v33.9h27.2v-33.9h22.8v89.3H926.8z"/>
		<path class="st0" d="M1034.1,903.3c-4.3,5.3-9.6,9.4-15.9,12.2c-6.3,2.8-12.8,4.2-19.7,4.2c-6.1,0-12-1.2-17.8-3.6
			c-5.8-2.4-10.8-5.8-15.1-10.1c-4.3-4.3-7.7-9.3-10.1-15.1c-2.4-5.8-3.6-11.7-3.6-17.8c0-1.3,0.1-3.1,0.3-5.3
			c0.2-2.2,0.7-4.7,1.5-7.4c0.8-2.7,1.9-5.6,3.4-8.6c1.5-3,3.5-6,6-8.9c2.1-2.5,4.5-4.8,7.3-6.8c2.7-2,5.6-3.7,8.7-5.1
			c3-1.4,6.2-2.5,9.6-3.2c3.3-0.8,6.6-1.1,9.9-1.1c3.8,0,7.3,0.4,10.6,1.3c3.2,0.8,6.2,1.9,8.7,3c2.6,1.2,4.8,2.4,6.6,3.7
			c1.9,1.3,3.3,2.3,4.3,3.2c5.1,4.4,9.2,9.7,12,15.9c2.9,6.2,4.3,12.8,4.3,19.6c0,1.4-0.1,3.1-0.3,5.3c-0.2,2.2-0.7,4.6-1.5,7.3
			c-0.8,2.7-1.9,5.5-3.4,8.5C1038.5,897.4,1036.5,900.3,1034.1,903.3z M1022.1,864.4c-0.9-2.4-2.2-4.7-3.7-6.6
			c-1.6-2-3.4-3.7-5.4-5.1c-2.1-1.4-4.3-2.5-6.8-3.3c-2.4-0.8-5-1.1-7.6-1.1c-0.8,0-1.8,0.1-3.2,0.3c-1.4,0.2-2.8,0.5-4.4,1
			c-1.6,0.5-3.2,1.2-5,2.2c-1.8,0.9-3.5,2.2-5.1,3.7c-2.4,2.4-4.3,5.1-5.6,8.2c-1.3,3.1-1.9,6.4-1.9,9.7c0,0.8,0.1,1.8,0.2,3.2
			c0.1,1.4,0.4,2.8,0.9,4.4c0.5,1.6,1.2,3.3,2.2,5.1c1,1.8,2.3,3.5,4,5.1c2.3,2.4,5,4.2,8.2,5.4c3.2,1.3,6.3,1.9,9.6,1.9
			c2.4,0,4.7-0.3,6.6-0.9c2-0.6,3.7-1.3,5.3-2.2c1.5-0.8,2.8-1.7,3.9-2.6c1.1-0.9,1.9-1.6,2.5-2.2c0.6-0.6,1.3-1.4,2.1-2.4
			c0.8-1,1.5-2.3,2.2-3.7c0.7-1.5,1.3-3.1,1.8-4.9c0.5-1.8,0.8-3.9,0.8-6.1C1023.6,870.2,1023.1,867.2,1022.1,864.4z"/>
		<path class="st0" d="M1113.4,895.7c-0.3,0.9-0.6,2.1-1,3.5c-0.4,1.4-1.1,2.9-2,4.5c-0.9,1.6-2,3.3-3.5,5c-1.4,1.7-3.3,3.4-5.6,5
			c-1.9,1.4-4.5,2.8-7.7,4.2c-3.2,1.3-7.6,2-13,2c-5.2,0-9.7-0.7-13.3-2.1c-3.6-1.4-6.7-3.1-9.2-5.2c-2.5-2.1-4.4-4.3-5.8-6.7
			c-1.4-2.4-2.4-4.7-3-6.8c-0.3-1-0.6-2-0.8-3.1c-0.2-1.1-0.4-2.2-0.5-3.4c-0.1-1.2-0.2-2.6-0.3-4.2c-0.1-1.6-0.1-3.5-0.1-5.7v-53.9
			h22.8v56.7c0,2.2,0.3,4.2,0.8,6.1c0.5,1.9,1.8,3.5,3.7,4.9c0.6,0.3,1.2,0.6,1.8,0.9c0.6,0.3,1.2,0.4,1.8,0.5
			c0.5,0.1,1,0.1,1.5,0.1c0.5,0,0.8,0,1.1,0c3,0,5.6-0.9,7.7-2.8c2.1-1.9,3.2-4.3,3.2-7.3v-2.9v-56.2h22.8v50.7c0,2.6,0,5.3-0.1,8.2
			C1114.5,890.5,1114.1,893.2,1113.4,895.7z"/>
		<path class="st0" d="M1166.7,913.8c-2,1.5-4,2.7-5.9,3.5c-1.9,0.8-3.7,1.4-5.3,1.8c-1.6,0.4-3.2,0.6-4.6,0.7
			c-1.4,0.1-2.6,0.1-3.6,0.1c-4.5,0-8.3-0.6-11.6-1.8c-3.2-1.2-6-2.6-8.2-4.4c-2.2-1.7-4-3.6-5.4-5.6c-1.4-2-2.3-3.8-2.9-5.5
			c-0.8-2.2-1.3-4.4-1.5-6.6c-0.3-2.2-0.4-4.7-0.5-7.5h21.8c0,2.2,0.2,4.2,0.6,6.1c0.4,1.9,1.5,3.4,3.5,4.5c0.4,0.3,1,0.5,1.6,0.8
			c0.7,0.3,1.6,0.4,2.7,0.4c2.3,0,4.1-0.7,5.6-2.2c1.4-1.4,2.2-3.2,2.2-5.4c0-2.7-0.8-4.7-2.5-6.1c-1.6-1.4-3.5-2.6-5.6-3.7
			l-4.2-1.6c-1.7-0.7-3.3-1.4-4.9-2.1c-1.6-0.7-3.1-1.5-4.7-2.3c-1-0.6-2.3-1.5-4-2.6c-1.6-1.1-3.2-2.7-4.7-4.6
			c-1.5-1.9-2.8-4.2-4-6.8c-1.1-2.7-1.7-5.8-1.7-9.3c0-1,0.1-2.2,0.2-3.6c0.1-1.4,0.5-2.9,1-4.6c0.5-1.6,1.3-3.4,2.4-5.1
			c1.1-1.8,2.5-3.5,4.4-5.3c2-1.9,4.1-3.5,6.3-4.6c2.2-1.1,4.3-2,6.3-2.6c2-0.6,3.9-1,5.5-1.1c1.6-0.2,3-0.3,4-0.3
			c1,0,2.4,0.1,4.1,0.2c1.7,0.1,3.7,0.6,5.9,1.3c2.7,0.9,5,2.1,7,3.4c2,1.4,3.6,2.8,4.9,4.3c1.3,1.5,2.4,3,3.2,4.5
			c0.8,1.5,1.5,2.7,1.9,3.7c0.2,0.5,0.3,1,0.5,1.4c0.2,0.4,0.3,0.8,0.4,1.3c0.2,0.4,0.3,0.9,0.3,1.3c0,0.5,0.1,0.9,0.3,1.3
			c0.2,0.9,0.2,1.8,0.2,2.6c0,0.8,0,1.8,0.2,3h-21.1c0-1.2,0-2-0.1-2.5c0-0.5-0.1-1-0.3-1.4c-0.4-1.5-1.3-2.7-2.5-3.5
			c-1.3-0.8-2.7-1.3-4.3-1.3c-2.1,0-3.8,0.6-5.1,1.9c-1.3,1.3-1.9,3-1.9,5.2c0,0.9,0.1,1.7,0.4,2.3c0.3,0.6,0.6,1.1,0.8,1.5
			c1,1.3,2.4,2.4,4.2,3.4c1,0.5,2.1,1,3.2,1.5c1.1,0.5,2.5,1.1,4.1,1.8c3.9,1.8,7,3.4,9.4,4.7c2.4,1.4,4.1,2.6,5.3,3.7
			c0.7,0.5,1.3,1.1,1.8,1.6c0.8,0.7,1.5,1.6,2.3,2.7c2.2,3,3.5,5.7,3.9,8.2c0.4,2.5,0.6,4.5,0.6,5.9c0,1.4-0.1,3-0.3,4.8
			c-0.2,1.9-0.7,3.8-1.5,5.9c-0.8,2.1-2,4.2-3.5,6.4C1171.5,909.7,1169.4,911.8,1166.7,913.8z"/>
		<path class="st0" d="M1181,918.1v-89.3h50.7v20h-27.2V862h27.2v21.1h-27.1v14.4h27.3v20.5H1181z"/>
		<path class="st0" d="M322.7,1025.5v-36.1c0-1.3,0-2.7,0-4.1s0-3,0.1-4.8c0-1.8,0.1-3.9,0.2-6.2c0.1-2.3,0.2-5.1,0.3-8.3
			c-1,3-1.9,5.7-2.5,7.9c-0.7,2.2-1.3,4.2-1.8,6c-0.5,1.8-1.1,3.4-1.5,4.7c-0.5,1.4-0.9,2.8-1.3,4.1c-1.2,3.3-2.3,6.6-3.3,9.9
			c-1,3.3-2.1,6.6-3.3,9.9c-0.9,2.7-1.9,5.4-2.8,8.2c-1,2.8-1.9,5.7-2.8,8.6h-16.6l-9.5-28.2c-0.8-2.2-1.6-4.4-2.3-6.5
			c-0.7-2.2-1.4-4.4-2-6.8l-5.4-18.1c0.1,3.3,0.1,6.2,0.2,8.6c0,2.4,0.1,4.6,0.1,6.5c0,1.9,0.1,3.6,0.1,5.1c0,1.5,0,2.9,0,4.2v35.2
			h-20.5v-89.3h30c1.9,5.8,3.8,11.5,5.6,16.9c1.8,5.4,3.6,10.9,5.4,16.5c1.1,3.4,2.2,6.8,3.3,10.4c1.1,3.5,2.4,7.8,3.9,12.8
			c1.4-4.9,2.7-9.1,3.7-12.6c1.1-3.5,2.1-6.9,3.1-10.2c1-3.3,2-6.5,3.1-9.7c1.1-3.2,2.1-6.5,3.2-9.7c0.7-2.3,1.4-4.6,2.2-6.8
			c0.8-2.3,1.6-4.8,2.5-7.5h30.4v89.3H322.7z"/>
		<path class="st0" d="M409.2,1025.5l-4.4-12.5h-30l-4.2,12.5h-25.7l35.8-89.8h18.6l36.2,89.8H409.2z M389.4,966.6l-8.9,27.7h18.2
			L389.4,966.6z"/>
		<path class="st0" d="M492.1,1025.5l-33.5-48.8v48.8h-22.4v-89.3H456c4,5.7,7.8,11.2,11.6,16.5c3.8,5.4,7.6,10.9,11.4,16.6
			l10.5,16.1v-49.2H512v89.3H492.1z"/>
		<path class="st0" d="M601.9,1002.8c-2.2,4-4.6,7.3-7.3,10.1c-2.7,2.7-5.4,5-8.1,6.8c-2.7,1.8-5.3,3.2-7.7,4.2
			c-2.4,1-4.5,1.6-6.1,2c-0.9,0.2-2.4,0.4-4.3,0.8c-1.9,0.3-4.2,0.5-6.8,0.5c-5.7,0-10.7-0.8-15.1-2.3c-4.4-1.5-8.2-3.4-11.4-5.5
			c-3.2-2.2-5.9-4.4-8-6.7c-2.1-2.3-3.7-4.3-4.8-6c-0.8-1-1.6-2.3-2.5-3.9c-0.9-1.6-1.7-3.4-2.5-5.5c-0.8-2.1-1.5-4.5-2-7.1
			c-0.5-2.6-0.8-5.5-0.8-8.7c0-6.1,0.9-11.4,2.6-16.1c1.7-4.6,3.8-8.6,6.3-12c2.4-3.4,5-6.1,7.7-8.2c2.7-2.1,4.9-3.7,6.6-4.8
			c0.9-0.6,2.1-1.2,3.6-1.9c1.5-0.7,3.2-1.3,5.1-2c1.9-0.6,4.1-1.2,6.5-1.6c2.4-0.4,5.1-0.6,8-0.6c1.4,0,3.2,0.1,5.4,0.3
			c2.2,0.2,4.5,0.7,7.1,1.4c2.6,0.7,5.3,1.8,8.2,3.2c2.9,1.4,5.8,3.3,8.8,5.7c2.8,2.3,5.1,4.6,7,7c1.9,2.4,3.4,4.7,4.6,7
			c1,2.1,1.9,4.3,2.8,6.6c0.3,0.8,0.5,1.5,0.8,2.2c0.3,0.7,0.5,1.4,0.6,2h-24.9c-0.4-0.7-0.8-1.3-1.1-1.8c-0.3-0.5-0.6-1-0.9-1.5
			c-2.2-3-4.8-5.2-7.9-6.6c-3.1-1.5-6.4-2.2-10.1-2.2c-2.4,0-4.3,0.2-5.9,0.6c-1.6,0.4-2.8,0.8-3.7,1.3c-4.3,1.9-7.7,4.8-10.3,8.7
			c-2.6,3.8-3.8,8.1-3.7,12.8c0,2.2,0.2,4,0.6,5.4c0.4,1.4,0.8,2.5,1.1,3.3c0.4,1,1.1,2.3,2.2,4c1,1.6,2.4,3.2,4.2,4.8
			c1.8,1.6,3.9,2.9,6.5,4c2.6,1.1,5.6,1.6,9,1.6c1.9,0,3.4-0.1,4.7-0.4c1.3-0.3,2.3-0.6,3-0.8c0.8-0.2,2.1-0.8,4.1-1.9
			c2-1.1,3.8-2.7,5.5-4.8c0.3-0.3,0.5-0.5,0.7-0.8c0.2-0.3,0.4-0.6,0.6-0.8l1.6-2.5h24.8c-1.1,3.1-1.9,5.4-2.5,7
			C603.2,1000.3,602.6,1001.6,601.9,1002.8z"/>
		<path class="st0" d="M659.5,1025.5v-33.7h-27.3v33.7h-22.9v-89.3h22.9V970h27.2v-33.9h22.8v89.3H659.5z"/>
		<path class="st0" d="M685.9,1025.5v-89.3h50.7v20h-27.2v13.3h27.2v21.1h-27.1v14.4h27.3v20.5H685.9z"/>
		<path class="st0" d="M788.9,1021.2c-2,1.5-4,2.7-5.9,3.5c-1.9,0.8-3.7,1.4-5.3,1.8c-1.6,0.4-3.2,0.6-4.6,0.7
			c-1.4,0.1-2.6,0.1-3.6,0.1c-4.5,0-8.3-0.6-11.6-1.8c-3.2-1.2-6-2.6-8.2-4.4c-2.2-1.7-4-3.6-5.4-5.6c-1.4-2-2.3-3.8-2.9-5.5
			c-0.8-2.2-1.3-4.4-1.5-6.6c-0.3-2.2-0.4-4.7-0.5-7.5h21.8c0,2.2,0.2,4.2,0.6,6.1c0.4,1.9,1.5,3.4,3.5,4.5c0.4,0.3,1,0.5,1.6,0.8
			c0.7,0.3,1.6,0.4,2.7,0.4c2.3,0,4.1-0.7,5.6-2.2c1.4-1.4,2.2-3.2,2.2-5.4c0-2.7-0.8-4.7-2.5-6.1c-1.6-1.4-3.5-2.6-5.6-3.7
			l-4.2-1.6c-1.7-0.7-3.3-1.4-4.9-2.1c-1.6-0.7-3.1-1.5-4.7-2.3c-1-0.6-2.3-1.5-4-2.6c-1.6-1.1-3.2-2.7-4.7-4.6
			c-1.5-1.9-2.8-4.2-4-6.8c-1.1-2.7-1.7-5.8-1.7-9.3c0-1,0.1-2.2,0.2-3.6c0.1-1.4,0.5-2.9,1-4.6c0.5-1.6,1.3-3.4,2.4-5.1
			c1.1-1.8,2.5-3.5,4.4-5.3c2-1.9,4.1-3.5,6.3-4.6c2.2-1.1,4.3-2,6.3-2.6c2-0.6,3.9-1,5.5-1.1c1.6-0.2,3-0.3,4-0.3
			c1,0,2.4,0.1,4.1,0.2c1.7,0.1,3.7,0.6,5.9,1.3c2.7,0.9,5,2.1,7,3.4c2,1.4,3.6,2.8,4.9,4.3c1.3,1.5,2.4,3,3.2,4.5
			c0.8,1.5,1.5,2.7,1.9,3.7c0.2,0.5,0.3,1,0.5,1.4c0.2,0.4,0.3,0.8,0.4,1.3c0.2,0.4,0.3,0.9,0.3,1.3c0,0.5,0.1,0.9,0.3,1.3
			c0.2,0.9,0.2,1.8,0.2,2.6c0,0.8,0,1.8,0.2,3h-21.1c0-1.2,0-2-0.1-2.5c0-0.5-0.1-1-0.3-1.4c-0.4-1.5-1.3-2.7-2.5-3.5
			c-1.3-0.8-2.7-1.3-4.3-1.3c-2.1,0-3.8,0.6-5.1,1.9c-1.3,1.3-1.9,3-1.9,5.2c0,0.9,0.1,1.7,0.4,2.3c0.3,0.6,0.6,1.1,0.8,1.5
			c1,1.3,2.4,2.4,4.2,3.4c1,0.5,2.1,1,3.2,1.5c1.1,0.5,2.5,1.1,4.1,1.8c3.9,1.8,7,3.4,9.4,4.7c2.4,1.4,4.1,2.6,5.3,3.7
			c0.7,0.5,1.3,1.1,1.8,1.6c0.8,0.7,1.5,1.6,2.3,2.7c2.2,3,3.5,5.7,3.9,8.2c0.4,2.5,0.6,4.5,0.6,5.9c0,1.4-0.1,3-0.3,4.8
			c-0.2,1.9-0.7,3.8-1.5,5.9c-0.8,2.1-2,4.2-3.5,6.4C793.7,1017,791.6,1019.1,788.9,1021.2z"/>
		<path class="st0" d="M841.4,956.4v69.1h-22.7v-69.2h-17.5v-20.1h58v20.2H841.4z"/>
		<path class="st0" d="M863.1,1025.5v-89.3h50.7v20h-27.2v13.3h27.2v21.1h-27.1v14.4h27.3v20.5H863.1z"/>
		<path class="st0" d="M958.7,1025.5l-18.2-28.6v28.6h-22.7v-89.3H951c4.2,0,8.1,0.3,11.8,0.9c3.6,0.6,7.2,2.2,10.8,4.9
			c1.1,0.8,2.3,2,3.5,3.4c1.3,1.4,2.5,3.1,3.6,5.1s2.1,4.4,2.8,7c0.8,2.7,1.1,5.7,1.1,9.2c0,3.5-0.4,6.7-1.3,9.4
			c-0.8,2.7-1.9,5-3.1,7c-1.2,2-2.5,3.6-3.9,4.9c-1.4,1.3-2.6,2.3-3.7,3.1c-0.9,0.7-1.9,1.3-2.9,1.8c-1,0.5-2.7,1.2-5.1,2.2
			l21.6,30.5H958.7z M960.4,960.9c-1.4-2.3-3.2-3.6-5.4-4.1c-2.2-0.5-4.5-0.7-6.9-0.7h-7.6v24.5h7.2c0.3-0.1,0.6-0.1,1-0.1
			c0.6,0,1.1,0,1.4-0.1c0.7-0.1,1.3-0.2,1.9-0.3c0.6-0.1,1.2-0.2,1.9-0.4c0.8-0.3,1.6-0.7,2.5-1.2c0.9-0.5,1.8-1.3,2.6-2.3
			c0.8-1,1.5-2.2,2.1-3.6c0.6-1.4,0.9-3.1,0.9-5.1c0-1.2-0.1-2.3-0.3-3.4C961.5,963.1,961.1,962,960.4,960.9z"/>
		<path class="st0" d="M137.9,1132.8v-72.3h-10.2v-17.1h32.6v89.3H137.9z"/>
		<path class="st0" d="M212.3,1128.5c-2,1.5-4,2.7-5.9,3.5c-1.9,0.8-3.7,1.4-5.3,1.8c-1.6,0.4-3.2,0.6-4.6,0.7
			c-1.4,0.1-2.6,0.1-3.6,0.1c-4.5,0-8.3-0.6-11.6-1.8c-3.2-1.2-6-2.6-8.2-4.4c-2.2-1.7-4-3.6-5.4-5.6c-1.4-2-2.3-3.8-2.9-5.5
			c-0.8-2.2-1.3-4.4-1.5-6.6c-0.3-2.2-0.4-4.7-0.5-7.5h21.8c0,2.2,0.2,4.2,0.6,6.1c0.4,1.9,1.5,3.4,3.5,4.5c0.4,0.3,1,0.5,1.6,0.8
			c0.7,0.3,1.6,0.4,2.7,0.4c2.3,0,4.1-0.7,5.6-2.2c1.4-1.4,2.2-3.2,2.2-5.4c0-2.7-0.8-4.7-2.5-6.1c-1.6-1.4-3.5-2.6-5.6-3.7
			l-4.2-1.6c-1.7-0.7-3.3-1.4-4.9-2.1c-1.6-0.7-3.1-1.5-4.7-2.3c-1-0.6-2.3-1.5-4-2.6c-1.6-1.1-3.2-2.7-4.7-4.6
			c-1.5-1.9-2.8-4.2-4-6.8c-1.1-2.7-1.7-5.8-1.7-9.3c0-1,0.1-2.2,0.2-3.6c0.1-1.4,0.5-2.9,1-4.6c0.5-1.6,1.3-3.4,2.4-5.1
			c1.1-1.8,2.5-3.5,4.4-5.3c2-1.9,4.1-3.5,6.3-4.6c2.2-1.1,4.3-2,6.3-2.6c2-0.6,3.9-1,5.5-1.1c1.6-0.2,3-0.3,4-0.3
			c1,0,2.4,0.1,4.1,0.2c1.7,0.1,3.7,0.6,5.9,1.3c2.7,0.9,5,2.1,7,3.4c2,1.4,3.6,2.8,4.9,4.3c1.3,1.5,2.4,3,3.2,4.5
			c0.8,1.5,1.5,2.7,1.9,3.7c0.2,0.5,0.3,1,0.5,1.4c0.2,0.4,0.3,0.8,0.4,1.3c0.2,0.4,0.3,0.9,0.3,1.3c0,0.5,0.1,0.9,0.3,1.3
			c0.2,0.9,0.2,1.8,0.2,2.6c0,0.8,0,1.8,0.2,3h-21.1c0-1.2,0-2-0.1-2.5c0-0.5-0.1-1-0.3-1.4c-0.4-1.5-1.3-2.7-2.5-3.5
			c-1.3-0.8-2.7-1.3-4.3-1.3c-2.1,0-3.8,0.6-5.1,1.9c-1.3,1.3-1.9,3-1.9,5.2c0,0.9,0.1,1.7,0.4,2.3c0.3,0.6,0.6,1.1,0.8,1.5
			c1,1.3,2.4,2.4,4.2,3.4c1,0.5,2.1,1,3.2,1.5c1.1,0.5,2.5,1.1,4.1,1.8c3.9,1.8,7,3.4,9.4,4.7c2.4,1.4,4.1,2.6,5.3,3.7
			c0.7,0.5,1.3,1.1,1.8,1.6c0.8,0.7,1.5,1.6,2.3,2.7c2.2,3,3.5,5.7,3.9,8.2c0.4,2.5,0.6,4.5,0.6,5.9c0,1.4-0.1,3-0.3,4.8
			c-0.2,1.9-0.7,3.8-1.5,5.9c-0.8,2.1-2,4.2-3.5,6.4C217.1,1124.4,215,1126.5,212.3,1128.5z"/>
		<path class="st0" d="M264.8,1063.7v69.1h-22.7v-69.2h-17.5v-20.1h58v20.2H264.8z"/>
		<path class="st0" d="M358.2,1117c-1.1,2.9-2.6,5.4-4.6,7.6c-2,2.2-4.2,4-6.7,5.5c-2.5,1.5-5.2,2.6-8.1,3.4
			c-2.9,0.8-5.8,1.1-8.7,1.1c-1.1,0-3-0.2-5.7-0.5c-2.7-0.3-5.5-1.2-8.5-2.7c-0.7-0.3-1.6-0.8-2.7-1.5c-1.1-0.7-2.3-1.6-3.7-2.8
			c-1.1-1-2.2-2.1-3.2-3.2c-0.6-0.8-1.2-1.6-1.8-2.6c-0.6-1-1.2-2-1.7-3.2c-0.3-0.8-0.6-1.7-0.9-2.5c-0.3-0.8-0.5-1.8-0.7-2.9
			c-0.2-1.1-0.4-2.3-0.6-3.7c-0.2-1.4-0.3-3.1-0.4-5h24.2c-0.1,0.8-0.1,1.7,0,2.8c0.1,1.1,0.3,2.2,0.8,3.2c0.4,1,1.1,1.9,2,2.6
			c0.9,0.7,2.1,1.1,3.7,1.1c0.6,0,1.3-0.1,2.2-0.4c0.8-0.3,1.6-0.9,2.4-1.9c0.6-0.9,1-1.8,1.3-2.7c0.3-0.8,0.4-2.2,0.4-4.2v-61.1
			h22.9v59.1c0,2.6-0.1,5.1-0.3,7.3C359.6,1112.2,359.1,1114.6,358.2,1117z"/>
		<path class="st0" d="M420.6,1132.8l-4.4-12.5h-30l-4.2,12.5h-25.7l35.8-89.8h18.6l36.2,89.8H420.6z M400.8,1074l-8.9,27.7h18.2
			L400.8,1074z"/>
		<path class="st0" d="M503.4,1132.8l-33.5-48.8v48.8h-22.4v-89.3h19.9c4,5.7,7.8,11.2,11.6,16.5c3.8,5.4,7.6,10.9,11.4,16.6
			l10.5,16.1v-49.2h22.5v89.3H503.4z"/>
		<path class="st0" d="M593,1110.4c-0.3,0.9-0.6,2.1-1,3.5c-0.4,1.4-1.1,2.9-2,4.5c-0.9,1.6-2,3.3-3.5,5c-1.4,1.7-3.3,3.4-5.6,5
			c-1.9,1.4-4.5,2.8-7.7,4.2c-3.2,1.3-7.6,2-13,2c-5.2,0-9.7-0.7-13.3-2.1c-3.6-1.4-6.7-3.1-9.2-5.2c-2.5-2.1-4.4-4.3-5.8-6.7
			c-1.4-2.4-2.4-4.7-3-6.8c-0.3-1-0.6-2-0.8-3.1c-0.2-1.1-0.4-2.2-0.5-3.4c-0.1-1.2-0.2-2.6-0.3-4.2c-0.1-1.6-0.1-3.5-0.1-5.7v-53.9
			H550v56.7c0,2.2,0.3,4.2,0.8,6.1c0.5,1.9,1.8,3.5,3.7,4.9c0.6,0.3,1.2,0.6,1.8,0.9c0.6,0.3,1.2,0.4,1.8,0.5c0.5,0.1,1,0.1,1.5,0.1
			c0.5,0,0.8,0,1.1,0c3,0,5.6-0.9,7.7-2.8c2.1-1.9,3.2-4.3,3.2-7.3v-2.9v-56.2h22.8v50.7c0,2.6,0,5.3-0.1,8.2
			C594.1,1105.2,593.7,1107.9,593,1110.4z"/>
		<path class="st0" d="M653.5,1132.8l-4.4-12.5h-30l-4.2,12.5h-25.7L625,1043h18.6l36.2,89.8H653.5z M633.8,1074l-8.9,27.7h18.2
			L633.8,1074z"/>
		<path class="st0" d="M721.3,1132.8l-18.2-28.6v28.6h-22.7v-89.3h33.2c4.2,0,8.1,0.3,11.8,0.9c3.6,0.6,7.2,2.2,10.8,4.9
			c1.1,0.8,2.3,2,3.5,3.4c1.3,1.4,2.5,3.1,3.6,5.1c1.1,2,2.1,4.4,2.8,7c0.8,2.7,1.1,5.7,1.1,9.2c0,3.5-0.4,6.7-1.3,9.4
			c-0.8,2.7-1.9,5-3.1,7c-1.2,2-2.5,3.6-3.9,4.9c-1.4,1.3-2.6,2.3-3.7,3.1c-0.9,0.7-1.9,1.3-2.9,1.8c-1,0.5-2.7,1.2-5.1,2.2
			l21.6,30.5H721.3z M723,1068.3c-1.4-2.3-3.2-3.6-5.4-4.1c-2.2-0.5-4.5-0.7-6.9-0.7h-7.6v24.5h7.2c0.3-0.1,0.6-0.1,1-0.1
			c0.6,0,1.1,0,1.4-0.1c0.7-0.1,1.3-0.2,1.9-0.3c0.6-0.1,1.2-0.2,1.9-0.4c0.8-0.3,1.6-0.7,2.5-1.2c0.9-0.5,1.8-1.3,2.6-2.3
			c0.8-1,1.5-2.2,2.1-3.6c0.6-1.4,0.9-3.1,0.9-5.1c0-1.2-0.1-2.3-0.3-3.4C724.1,1070.5,723.7,1069.4,723,1068.3z"/>
		<path class="st0" d="M792.8,1099.5v33.3h-22.9v-32.9l-26.8-56.4h25.1l10.6,25.6c0.4,0.8,0.8,1.8,1.1,2.8c0.3,1,0.9,2.6,1.6,4.8
			c1.3-2.8,2.2-5,2.8-6.7c0.6-1.7,1.3-3.3,2-4.8l9.1-21.6h23.8L792.8,1099.5z"/>
		<path class="st0" d="M845.6,1132.8v-16.7c3-2.8,5.9-5.5,8.7-8c2.8-2.6,5.5-5.2,8.2-7.8l7.2-7c2.4-2.4,4.5-4.5,6.3-6.5
			c1.7-2,3.2-3.8,4.3-5.6c1.1-1.7,2-3.4,2.5-5.1c0.5-1.7,0.8-3.4,0.8-5.2c0-0.5,0-0.9-0.1-1.3c0-0.4-0.1-0.7-0.2-1.1
			c-0.1-0.3-0.1-0.5-0.2-0.7c0-0.2-0.1-0.5-0.2-0.8c-0.6-1.6-1.5-2.9-2.8-3.9c-1.3-1-2.8-1.5-4.6-1.5c-1.5,0-2.9,0.4-4,1.3
			c-1.7,1.2-2.8,2.7-3.4,4.5c-0.6,1.8-0.9,3.7-1,5.6c-0.1,0.5-0.1,1-0.1,1.6c0,0.5,0,1.2,0,2l-22.3-0.1v-3.8c0-0.8,0.1-1.7,0.2-2.7
			c0.1-0.9,0.3-1.9,0.4-2.9c0.4-2.1,1.1-4.3,2-6.6c0.9-2.3,2.2-4.5,4-6.7c1-1.3,2.3-2.6,3.7-4c1.5-1.4,3.3-2.7,5.4-3.9
			c2.2-1.2,4.6-2.2,7.5-2.9c2.8-0.8,6.1-1.1,9.9-1.1c0.8,0,1.8,0,3.1,0.1c1.3,0.1,2.8,0.3,4.4,0.6c1.6,0.3,3.4,0.8,5.3,1.5
			c1.9,0.7,3.8,1.6,5.7,2.8c0.9,0.8,2,1.7,3.4,2.9c1.3,1.2,2.6,2.7,3.8,4.5c1.2,1.8,2.3,3.9,3.1,6.3c0.8,2.4,1.3,5.2,1.3,8.3v1.8
			c0,0.3,0,0.7-0.1,1c0,0.3-0.1,0.7-0.2,1.1c-0.2,0.9-0.3,1.9-0.5,2.8c-0.2,1-0.5,2-0.9,3.1c-0.8,2-1.8,4-3,5.9
			c-1.2,1.9-2.6,3.8-4,5.7c-1.4,1.9-2.9,3.6-4.5,5.4c-1.6,1.7-3.1,3.4-4.6,5l-10.9,11.3h29.5v20.9H845.6z"/>
		<path class="st0" d="M993,1119c-4.4,5.1-9.7,9-15.9,11.7c-6.2,2.7-12.6,4.1-19.3,4.1c-6.1,0-12-1.2-17.8-3.6
			c-5.8-2.4-10.8-5.8-15.1-10.1c-4.3-4.3-7.7-9.3-10.1-15.1c-2.4-5.8-3.6-11.7-3.6-17.9c0-5.8,1.1-11.4,3.2-16.8
			c2.1-5.4,5.1-10.2,8.9-14.5c4.4-4.9,9.6-8.7,15.7-11.4c6.1-2.7,12.4-4,19-4c1.3,0,3.1,0.1,5.4,0.3c2.2,0.2,4.7,0.7,7.4,1.5
			c2.7,0.8,5.6,1.9,8.6,3.4c3,1.5,6,3.5,9,6c5.1,4.4,9.2,9.7,12,15.9c2.9,6.2,4.3,12.8,4.3,19.6c0,5.6-1,11-3,16.3
			C999.7,1109.9,996.8,1114.7,993,1119z M977.2,1072.3c-1.7-2-3.5-3.6-5.3-4.8c-1.9-1.2-3.7-2.1-5.4-2.7c-1.8-0.6-3.4-1-4.9-1.2
			c-1.5-0.2-2.7-0.3-3.5-0.3c-3.5,0-7,0.8-10.2,2.3c-4.4,1.9-7.9,5-10.6,9c-2.7,4.1-4,8.6-4,13.6c0,0.8,0.1,1.8,0.2,3.2
			c0.1,1.4,0.4,2.8,0.9,4.4c0.5,1.6,1.2,3.2,2.2,5c1,1.8,2.3,3.5,4,5.2c2.4,2.4,5.2,4.2,8.2,5.4c3,1.2,6.2,1.8,9.4,1.8
			c0.8,0,1.7-0.1,2.8-0.2c1.1-0.1,2.4-0.4,3.9-0.8c1.4-0.4,3-1,4.6-1.8c1.6-0.8,3.2-1.8,4.7-3.1c2-1.6,3.6-3.4,4.8-5.3
			c1.2-1.9,2.1-3.7,2.7-5.5c0.6-1.8,1-3.4,1.2-4.9c0.2-1.5,0.3-2.7,0.3-3.6C982.9,1082.2,981,1076.9,977.2,1072.3z"/>
		<path class="st0" d="M1013.7,1132.8v-72.3h-10.2v-17.1h32.6v89.3H1013.7z"/>
		<path class="st0" d="M1096.3,1102.8l-19.7,30h-27.7l21-27.1c-2.4,0.2-4.4,0.2-6,0.1c-1.6-0.1-3.3-0.4-5-0.9
			c-3.2-0.8-6.1-2.3-8.5-4.3c-2.5-2-4.6-4.4-6.4-7.1c-1.8-2.7-3.1-5.6-4-8.8c-0.9-3.2-1.4-6.4-1.4-9.7c0-4.6,0.9-9,2.7-13
			c1.8-4,4.2-7.6,7.3-10.6c3-3,6.6-5.4,10.7-7.1c4.1-1.7,8.4-2.6,13-2.6c1.9,0,4.5,0.3,8,0.9c3.5,0.6,7.1,2.3,11,5
			c1.3,0.9,2.7,2.2,4.4,3.7c1.7,1.6,3.3,3.5,4.8,5.8c1.5,2.3,2.8,5.1,3.8,8.2c1,3.2,1.5,6.8,1.5,10.9c0,2.7-0.2,5.2-0.6,7.5
			c-0.4,2.3-1.1,4.5-1.9,6.6c-0.8,2.1-1.8,4.2-3,6.2C1099,1098.7,1097.7,1100.7,1096.3,1102.8z M1080.2,1067.2
			c-0.6-0.6-1.6-1.3-2.9-2.2c-1.4-0.8-3.1-1.3-5.3-1.3c-1.6,0-3.1,0.3-4.6,0.9c-1.4,0.6-2.7,1.5-3.7,2.5c-1.1,1.1-1.9,2.3-2.5,3.7
			c-0.6,1.4-0.9,2.9-0.9,4.5c0,1.7,0.3,3.2,0.9,4.7c0.6,1.4,1.5,2.7,2.5,3.7c1.1,1,2.3,1.8,3.7,2.4c1.4,0.6,3,0.9,4.6,0.9
			c3.4,0,6.2-1.1,8.4-3.4c2.2-2.3,3.3-5.1,3.3-8.4c0-0.8-0.2-1.9-0.5-3.5C1082.9,1070.2,1081.9,1068.7,1080.2,1067.2z"/>
	</g>
	<g>
		<path class="st2" d="M290.3,747.9L125.7,507.8v240.1H0V275.7h110.4c20.5,29.4,40.7,58.2,60.5,86.3c19.8,28.1,39.8,57.3,59.9,87.6
			l44.1,67.6V275.7h126.4v472.2H290.3z"/>
		<path class="st2" d="M672.8,572v175.9H543.1V574L402,275.7h141.1l56.5,135.1c1.8,4.5,3.5,8.8,5,13c1.6,4.2,3.3,8.8,5,13.7
			c3.6-8,6.8-15.8,9.7-23.4c2.9-7.6,6.2-15.4,9.7-23.4l48.4-115H812L672.8,572z"/>
		<path class="st2" d="M1172.5,679.7c-5.3,6.2-14,14.8-26.1,25.7c-12,10.9-28.5,20.4-49.5,28.4c-17.8,6.7-34.9,10.7-51.2,12
			c-16.3,1.3-33.8,2-52.5,2H812V275.7h186.6c3.1,0,7.7-0.1,13.7-0.3c6-0.2,13,0.1,21.1,1c8,0.9,16.8,1.9,26.4,3
			c9.6,1.1,19.3,3.2,29.1,6.4c18.3,5.8,34.9,14.3,49.8,25.4c14.9,11.2,28.2,23.9,39.8,38.1c11.6,14.3,21.3,29.9,29.1,46.8
			c7.8,16.9,13.7,34.3,17.7,52.2c1.3,6.3,2.8,14.2,4.3,23.7c1.6,9.6,2.3,21.7,2.3,36.5c0,8-0.4,18.3-1.3,30.8
			c-0.9,12.5-3.2,26.4-7,41.8c-3.8,15.4-9.7,31.6-17.7,48.5C1197.9,646.5,1186.7,663.2,1172.5,679.7z M1101.6,483.1
			c-4-19.2-11-36.5-21.1-51.8c-10-15.4-24.4-26.4-43.1-33.1c-9.4-3.6-18.4-5.7-27.1-6.4c-8.7-0.7-18.4-1-29.1-1h-40.8v240.1h60.9
			c8.9,0,17.1-0.3,24.4-1c7.4-0.7,14.8-2.6,22.4-5.7c13.8-5.8,24.5-14.4,32.1-25.7c7.6-11.4,13.3-23,17.1-34.8
			c3.8-11.8,6-22.5,6.7-32.1c0.7-9.6,1-15.5,1-17.7c0-3.1-0.2-7.2-0.7-12.4C1103.8,496.3,1102.9,490.2,1101.6,483.1z"/>
	</g>
	<g>
		<g>
			<path class="st0" d="M1212.7,98.2c0,49.2-40.3,89.1-89.5,89.1l-63.2,0V9.1l63.6,0C1172.8,9,1212.7,48.9,1212.7,98.2 M1164.8,97.8
				c0-27.1-21.2-46.7-47.3-46.9l-10.6-0.1v94l10.6,0C1143.7,144.8,1164.8,124.9,1164.8,97.8"/>
			<path class="st0" d="M301.5,97.8c0,52-42.6,94.1-94.5,94.1l-2.5,0v-49.1h4.4c24.1,0,43.7-20.1,43.7-45.1
				c0-25-19.5-45.1-43.7-45.3l-4.4,0V3.7h2.9C259.4,3.7,301.5,45.8,301.5,97.8"/>
			<polygon class="st0" points="409.6,48.7 355.3,48.7 355.3,75.4 409.6,75.4 409.6,117.3 355.6,117.3 355.6,146.7 410.1,146.7 
				410.1,187.3 308.3,187.3 308.3,9 409.6,9 			"/>
			<polygon class="st0" points="523.9,49.2 465.8,49.2 465.8,77.7 523.6,77.7 523.6,119.4 465.8,119.4 465.8,187.3 420.6,187.3 
				420.6,9 523.9,9 			"/>
			<polygon class="st0" points="636.3,48.7 581.9,48.7 581.9,75.4 636.3,75.4 636.3,117.3 582.2,117.3 582.2,146.7 636.8,146.7 
				636.8,187.3 535,187.3 535,9 636.3,9 			"/>
			<path class="st0" d="M776.3,75.7c-1.3-2.5-2.8-4.6-4.3-6.8c-8.6-11.4-21.5-17.7-35.9-17.7c-9.3,0-15.9,2.5-19.2,4
				c-17.4,7.3-28,24.3-28,42.9c0.3,8.6,2.3,14.4,3.5,17.4c3.5,8.3,16.2,29,43.7,29c7.3,0,12.4-1.5,15.4-2.5
				c2.8-1,12.6-5.6,19.5-13.6c1.8-2.3,2.8-3.8,5.6-8.3H826c-3.8,11.6-6.1,16.7-8.8,22c-17.2,31.8-45.7,42.9-58.3,46
				c-3.8,1-11.9,2.5-22.2,2.5c-45.2,0-69.2-27.8-78.3-40.9c-5.8-8.3-15.4-24.7-15.4-50.3c0-48.5,31.8-73.5,46.2-82.1
				c7.3-4.3,23.7-12.1,46.5-12.1c11.6,0,35.3,2,58.8,21.2c22,17.9,28.3,38.9,31.3,49.3H776.3z"/>
			<polygon class="st0" points="935.6,49.2 900,49.2 900,187.3 854.8,187.3 854.8,48.9 819.9,48.9 819.9,9 935.6,9 			"/>
			<polygon class="st0" points="1047.9,48.7 993.5,48.7 993.5,75.4 1047.9,75.4 1047.9,117.3 993.8,117.3 993.8,146.7 1048.3,146.7 
				1048.3,187.3 946.5,187.3 946.5,9 1047.9,9 			"/>
			<polygon class="st0" points="1192.2,13.1 1192.2,8.8 1208.7,8.8 1208.7,13.1 1203.1,13.1 1203.1,28.3 1197.9,28.3 1197.9,13.1 
							"/>
			<path class="st0" d="M1227.2,14.7L1227.2,14.7l-3.7,13.7h-4.1l-3.7-13.7l-0.2-0.8c0,0.4,0,14.5,0,14.5h-4.6V8.8h7.2l3,11.5
				c0.2,0.7,0.4,1.7,0.4,3c0,0.3,0.1,0.6,0.1,1c0-0.7,0-1.4,0.1-2.1c0.1-0.9,0.2-1.4,0.3-1.9l3-11.5h7.2v19.5h-4.8V14.7z"/>
		</g>
		<rect class="st0" width="195.2" height="195.2"/>
	</g>
</g>
</svg>
