<svg xmlns="http://www.w3.org/2000/svg" viewBox="0 0 558.29 580.32"><defs><style>.cls-1,.cls-3,.cls-5{fill:#fff;}.cls-2{fill:aqua;}.cls-3{font-size:95.29px;}.cls-3,.cls-5{font-family:AvantGardeDefected-Bold, Avant Garde Defected Bold;font-weight:700;}.cls-4{letter-spacing:-0.01em;}.cls-5{font-size:102.06px;}.cls-6{letter-spacing:-0.01em;}.cls-7{letter-spacing:-0.06em;}.cls-8{letter-spacing:-0.05em;}.cls-9{letter-spacing:-0.02em;}.cls-10{letter-spacing:-0.01em;}.cls-11{letter-spacing:0.02em;}</style></defs><title>Asset 16</title><g id="Layer_2" data-name="Layer 2"><g id="TEXT"><polygon class="cls-1" points="139.09 4.04 139.09 84.09 184.78 84.09 184.78 65.84 160.29 65.84 160.29 52.68 184.55 52.68 184.55 33.86 160.18 33.86 160.18 21.84 184.55 21.84 184.55 4.04 139.09 4.04"/><path class="cls-1" d="M94.42,23.57c10.83.06,19.6,9.09,19.6,20.32s-8.77,20.24-19.6,20.24h-2v22h1.11a42.26,42.26,0,1,0,.18-84.52H92.46v21.9Z"/><polygon class="cls-1" points="286.56 84.09 286.56 65.84 262.06 65.84 262.06 52.68 286.33 52.68 286.33 33.86 261.95 33.86 261.95 21.84 286.33 21.84 286.33 4.04 240.86 4.04 240.86 84.09 286.56 84.09"/><rect class="cls-1" x="0.63" width="87.62" height="87.61"/><polygon class="cls-1" points="235.85 4.04 189.48 4.04 189.48 84.09 209.78 84.09 209.78 53.59 235.75 53.59 235.75 34.88 209.78 34.88 209.78 22.07 235.85 22.07 235.85 4.04"/><polygon class="cls-1" points="471.37 84.09 471.37 65.84 446.88 65.84 446.88 52.68 471.15 52.68 471.15 33.86 446.77 33.86 446.77 21.84 471.15 21.84 471.15 4.04 425.68 4.04 425.68 84.09 471.37 84.09"/><path class="cls-1" d="M476.62,4.06v80H505a40,40,0,1,0,.17-80Zm25.83,18.81c11.73.07,21.23,8.88,21.23,21A20.84,20.84,0,0,1,502.45,65h-4.73V22.83Z"/><polygon class="cls-1" points="420.75 4.04 368.82 4.04 368.82 21.95 384.46 21.95 384.46 84.09 404.76 84.09 404.76 22.07 420.75 22.07 420.75 4.04"/><path class="cls-1" d="M289.34,44.63a38.35,38.35,0,0,0,6.91,22.57A41.81,41.81,0,0,0,331.4,85.57a40.68,40.68,0,0,0,10-1.14,41.56,41.56,0,0,0,26.19-20.64,56.38,56.38,0,0,0,4-9.86H349.32a35.38,35.38,0,0,1-2.5,3.74,23.23,23.23,0,0,1-8.73,6.12,20.7,20.7,0,0,1-6.92,1.14c-12.35,0-18-9.3-19.61-13A21.48,21.48,0,0,1,310,44.06a20.66,20.66,0,0,1,12.59-19.27A20.31,20.31,0,0,1,331.17,23a19.82,19.82,0,0,1,16.11,7.94A29.47,29.47,0,0,1,349.2,34h22.23a42,42,0,0,0-14.07-22.12A41.09,41.09,0,0,0,331,2.34a41.66,41.66,0,0,0-20.87,5.44A42.3,42.3,0,0,0,289.34,44.63Z"/><polygon class="cls-1" points="543.38 5.89 543.38 3.96 536 3.96 536 5.88 538.54 5.88 538.54 12.71 540.86 12.71 540.86 5.89 543.38 5.89"/><path class="cls-1" d="M546.36,12.71s0-6.33,0-6.49l.09.37,1.68,6.12H550l1.68-6.12v6.12h2.16V4h-3.21L549.27,9.1c0,.21-.09.45-.15.84s0,.62,0,.92c0-.13,0-.28,0-.42a6.27,6.27,0,0,0-.18-1.34L547.51,4H544.3v8.75Z"/><path class="cls-2" d="M129.52,335.65,56.41,229v106.7H.54V125.82h49q13.67,19.6,26.89,38.34t26.6,38.93l19.62,30V125.82h56.17V335.65Z"/><path class="cls-2" d="M302.5,257.48v78.17H244.84V258.37L182.13,125.82h62.71l25.09,60q1.2,3,2.24,5.8t2.25,6.09q2.38-5.34,4.33-10.4t4.33-10.4l21.5-51.12h59.74Z"/><path class="cls-2" d="M527.48,305.33a138.8,138.8,0,0,1-11.59,11.44q-8,7.29-22,12.64a85,85,0,0,1-22.74,5.35q-10.85.89-23.33.89H367.29V125.82h82.92q2.09,0,6.09-.15a65.25,65.25,0,0,1,9.37.44l11.74,1.34a69.08,69.08,0,0,1,12.92,2.83,74.18,74.18,0,0,1,22.15,11.29,99.28,99.28,0,0,1,17.68,16.94,97.93,97.93,0,0,1,12.93,20.8A116.8,116.8,0,0,1,551,202.5q.9,4.16,1.94,10.55a104.28,104.28,0,0,1,1,16.2q0,5.34-.6,13.67a112.35,112.35,0,0,1-3.12,18.57A114.81,114.81,0,0,1,542.35,283,99.39,99.39,0,0,1,527.48,305.33ZM496,218a66.61,66.61,0,0,0-9.36-23,36.91,36.91,0,0,0-19.17-14.71,43,43,0,0,0-12-2.83q-5.79-.44-12.93-.44H424.35v106.7h27q5.94,0,10.85-.45a34.22,34.22,0,0,0,9.95-2.53,31.07,31.07,0,0,0,14.27-11.44A63.51,63.51,0,0,0,497,239.5c.3-4.26.45-6.88.45-7.88q0-2.07-.3-5.49C497,223.85,496.58,221.12,496,218Z"/><text class="cls-3" transform="translate(0 441.38)"><tspan class="cls-4">MA</tspan><tspan x="141.79" y="0">NCHE</tspan><tspan class="cls-4" x="371.15" y="0">S</tspan><tspan x="416.79" y="0">TER</tspan></text><text class="cls-5" transform="translate(0.63 551.95)">1<tspan class="cls-6" x="28.37" y="0">S</tspan><tspan x="77.25" y="0">T</tspan><tspan class="cls-7" x="127.06" y="0"> </tspan><tspan class="cls-8" x="139.3" y="0">J</tspan><tspan class="cls-9" x="184.41" y="0">A</tspan><tspan x="256.97" y="0">N 2</tspan><tspan class="cls-10" x="394.34" y="0">0</tspan><tspan class="cls-11" x="469.66" y="0">1</tspan><tspan x="499.56" y="0">9</tspan></text></g></g></svg>